<svg width="417" height="422" xmlns="http://www.w3.org/2000/svg" xmlns:xlink="http://www.w3.org/1999/xlink" xml:space="preserve" overflow="hidden"><defs><linearGradient x1="1913.5" y1="204" x2="1913.5" y2="594" gradientUnits="userSpaceOnUse" spreadMethod="reflect" id="fill0"><stop offset="0" stop-color="#FDD089" stop-opacity="1"/><stop offset="0.00735294" stop-color="#FCCF88" stop-opacity="1"/><stop offset="0.0147059" stop-color="#FCCF88" stop-opacity="1"/><stop offset="0.0220588" stop-color="#FCCF88" stop-opacity="1"/><stop offset="0.0294118" stop-color="#FCCF88" stop-opacity="1"/><stop offset="0.0367647" stop-color="#FCCF88" stop-opacity="1"/><stop offset="0.0441176" stop-color="#FCCF88" stop-opacity="1"/><stop offset="0.0514706" stop-color="#FCCF88" stop-opacity="1"/><stop offset="0.0588235" stop-color="#FCCF88" stop-opacity="1"/><stop offset="0.0661765" stop-color="#FCCF88" stop-opacity="1"/><stop offset="0.0735294" stop-color="#FCCF87" stop-opacity="1"/><stop offset="0.0808824" stop-color="#FCCF87" stop-opacity="1"/><stop offset="0.0882353" stop-color="#FCCF87" stop-opacity="1"/><stop offset="0.0955882" stop-color="#FCCF87" stop-opacity="1"/><stop offset="0.102941" stop-color="#FCCF87" stop-opacity="1"/><stop offset="0.110294" stop-color="#FBCE86" stop-opacity="1"/><stop offset="0.117647" stop-color="#FBCE86" stop-opacity="1"/><stop offset="0.125" stop-color="#FBCE86" stop-opacity="1"/><stop offset="0.132353" stop-color="#FBCE85" stop-opacity="1"/><stop offset="0.139706" stop-color="#FBCE85" stop-opacity="1"/><stop offset="0.147059" stop-color="#FBCE85" stop-opacity="1"/><stop offset="0.154412" stop-color="#FBCD84" stop-opacity="1"/><stop offset="0.161765" stop-color="#FACD84" stop-opacity="1"/><stop offset="0.169118" stop-color="#FACD84" stop-opacity="1"/><stop offset="0.176471" stop-color="#FACD83" stop-opacity="1"/><stop offset="0.183824" stop-color="#FACD83" stop-opacity="1"/><stop offset="0.191176" stop-color="#FACC82" stop-opacity="1"/><stop offset="0.198529" stop-color="#F9CC82" stop-opacity="1"/><stop offset="0.205882" stop-color="#F9CC81" stop-opacity="1"/><stop offset="0.213235" stop-color="#F9CC81" stop-opacity="1"/><stop offset="0.220588" stop-color="#F9CB80" stop-opacity="1"/><stop offset="0.227941" stop-color="#F8CB80" stop-opacity="1"/><stop offset="0.235294" stop-color="#F8CB7F" stop-opacity="1"/><stop offset="0.242647" stop-color="#F8CB7F" stop-opacity="1"/><stop offset="0.25" stop-color="#F8CA7E" stop-opacity="1"/><stop offset="0.257353" stop-color="#F7CA7E" stop-opacity="1"/><stop offset="0.264706" stop-color="#F7CA7D" stop-opacity="1"/><stop offset="0.272059" stop-color="#F7C97D" stop-opacity="1"/><stop offset="0.279412" stop-color="#F6C97C" stop-opacity="1"/><stop offset="0.286765" stop-color="#F6C97B" stop-opacity="1"/><stop offset="0.294118" stop-color="#F6C87B" stop-opacity="1"/><stop offset="0.301471" stop-color="#F6C87A" stop-opacity="1"/><stop offset="0.308824" stop-color="#F5C879" stop-opacity="1"/><stop offset="0.316176" stop-color="#F5C779" stop-opacity="1"/><stop offset="0.323529" stop-color="#F5C778" stop-opacity="1"/><stop offset="0.330882" stop-color="#F4C777" stop-opacity="1"/><stop offset="0.338235" stop-color="#F4C677" stop-opacity="1"/><stop offset="0.345588" stop-color="#F3C676" stop-opacity="1"/><stop offset="0.352941" stop-color="#F3C575" stop-opacity="1"/><stop offset="0.360294" stop-color="#F3C574" stop-opacity="1"/><stop offset="0.367647" stop-color="#F2C574" stop-opacity="1"/><stop offset="0.375" stop-color="#F2C473" stop-opacity="1"/><stop offset="0.382353" stop-color="#F2C472" stop-opacity="1"/><stop offset="0.389706" stop-color="#F1C371" stop-opacity="1"/><stop offset="0.397059" stop-color="#F1C370" stop-opacity="1"/><stop offset="0.404412" stop-color="#F0C26F" stop-opacity="1"/><stop offset="0.411765" stop-color="#F0C26F" stop-opacity="1"/><stop offset="0.419118" stop-color="#F0C26E" stop-opacity="1"/><stop offset="0.426471" stop-color="#EFC16D" stop-opacity="1"/><stop offset="0.433824" stop-color="#EFC16C" stop-opacity="1"/><stop offset="0.441176" stop-color="#EEC06B" stop-opacity="1"/><stop offset="0.448529" stop-color="#EEC06A" stop-opacity="1"/><stop offset="0.455882" stop-color="#EDBF69" stop-opacity="1"/><stop offset="0.463235" stop-color="#EDBF68" stop-opacity="1"/><stop offset="0.470588" stop-color="#ECBE67" stop-opacity="1"/><stop offset="0.477941" stop-color="#ECBE66" stop-opacity="1"/><stop offset="0.485294" stop-color="#EBBD65" stop-opacity="1"/><stop offset="0.492647" stop-color="#EBBD64" stop-opacity="1"/><stop offset="0.5" stop-color="#EBBC63" stop-opacity="1"/><stop offset="0.507353" stop-color="#EABC62" stop-opacity="1"/><stop offset="0.514706" stop-color="#EABB61" stop-opacity="1"/><stop offset="0.522059" stop-color="#E9BB60" stop-opacity="1"/><stop offset="0.529412" stop-color="#E8BA5F" stop-opacity="1"/><stop offset="0.536765" stop-color="#E8B95E" stop-opacity="1"/><stop offset="0.544118" stop-color="#E7B95D" stop-opacity="1"/><stop offset="0.551471" stop-color="#E7B85C" stop-opacity="1"/><stop offset="0.558824" stop-color="#E6B85A" stop-opacity="1"/><stop offset="0.566176" stop-color="#E6B759" stop-opacity="1"/><stop offset="0.573529" stop-color="#E5B658" stop-opacity="1"/><stop offset="0.580882" stop-color="#E5B657" stop-opacity="1"/><stop offset="0.588235" stop-color="#E4B556" stop-opacity="1"/><stop offset="0.595588" stop-color="#E4B555" stop-opacity="1"/><stop offset="0.602941" stop-color="#E3B453" stop-opacity="1"/><stop offset="0.610294" stop-color="#E2B352" stop-opacity="1"/><stop offset="0.617647" stop-color="#E2B351" stop-opacity="1"/><stop offset="0.625" stop-color="#E1B250" stop-opacity="1"/><stop offset="0.632353" stop-color="#E1B14E" stop-opacity="1"/><stop offset="0.639706" stop-color="#E0B14D" stop-opacity="1"/><stop offset="0.647059" stop-color="#DFB04C" stop-opacity="1"/><stop offset="0.654412" stop-color="#DFAF4B" stop-opacity="1"/><stop offset="0.661765" stop-color="#DEAF49" stop-opacity="1"/><stop offset="0.669118" stop-color="#DDAE48" stop-opacity="1"/><stop offset="0.676471" stop-color="#DDAD47" stop-opacity="1"/><stop offset="0.683824" stop-color="#DCAD45" stop-opacity="1"/><stop offset="0.691176" stop-color="#DBAC44" stop-opacity="1"/><stop offset="0.698529" stop-color="#DBAB43" stop-opacity="1"/><stop offset="0.705882" stop-color="#DAAB41" stop-opacity="1"/><stop offset="0.713235" stop-color="#D9AA40" stop-opacity="1"/><stop offset="0.720588" stop-color="#D9A93E" stop-opacity="1"/><stop offset="0.727941" stop-color="#D8A83D" stop-opacity="1"/><stop offset="0.735294" stop-color="#D7A83C" stop-opacity="1"/><stop offset="0.742647" stop-color="#D7A73A" stop-opacity="1"/><stop offset="0.75" stop-color="#D6A639" stop-opacity="1"/><stop offset="0.757353" stop-color="#D5A537" stop-opacity="1"/><stop offset="0.764706" stop-color="#D5A536" stop-opacity="1"/><stop offset="0.772059" stop-color="#D4A434" stop-opacity="1"/><stop offset="0.779412" stop-color="#D3A333" stop-opacity="1"/><stop offset="0.786765" stop-color="#D2A231" stop-opacity="1"/><stop offset="0.794118" stop-color="#D2A130" stop-opacity="1"/><stop offset="0.801471" stop-color="#D1A12E" stop-opacity="1"/><stop offset="0.808824" stop-color="#D0A02C" stop-opacity="1"/><stop offset="0.816176" stop-color="#CF9F2B" stop-opacity="1"/><stop offset="0.823529" stop-color="#CF9E29" stop-opacity="1"/><stop offset="0.830882" stop-color="#CE9D28" stop-opacity="1"/><stop offset="0.838235" stop-color="#CD9D26" stop-opacity="1"/><stop offset="0.845588" stop-color="#CC9C24" stop-opacity="1"/><stop offset="0.852941" stop-color="#CC9B23" stop-opacity="1"/><stop offset="0.860294" stop-color="#CB9A21" stop-opacity="1"/><stop offset="0.867647" stop-color="#CA9920" stop-opacity="1"/><stop offset="0.875" stop-color="#C9981E" stop-opacity="1"/><stop offset="0.882353" stop-color="#C8971C" stop-opacity="1"/><stop offset="0.889706" stop-color="#C7961A" stop-opacity="1"/><stop offset="0.897059" stop-color="#C79619" stop-opacity="1"/><stop offset="0.904412" stop-color="#C69517" stop-opacity="1"/><stop offset="0.911765" stop-color="#C59415" stop-opacity="1"/><stop offset="0.919118" stop-color="#C49314" stop-opacity="1"/><stop offset="0.926471" stop-color="#C39212" stop-opacity="1"/><stop offset="0.933824" stop-color="#C29110" stop-opacity="1"/><stop offset="0.941176" stop-color="#C2900E" stop-opacity="1"/><stop offset="0.948529" stop-color="#C18F0C" stop-opacity="1"/><stop offset="0.955882" stop-color="#C08E0B" stop-opacity="1"/><stop offset="0.963235" stop-color="#BF8D09" stop-opacity="1"/><stop offset="0.970588" stop-color="#BE8C07" stop-opacity="1"/><stop offset="0.977941" stop-color="#BD8B05" stop-opacity="1"/><stop offset="0.985294" stop-color="#BC8A03" stop-opacity="1"/><stop offset="0.992647" stop-color="#BB8901" stop-opacity="1"/><stop offset="1" stop-color="#BB8900" stop-opacity="1"/></linearGradient></defs><g transform="translate(-1705 -187)"><g><path d="M1835.9 437.335C1834.22 445.112 1832.86 454.514 1832.14 464.098L1832.1 464.826C1832.1 465.151 1832.03 465.477 1832.02 465.802 1827.42 460.028 1821.89 455.242 1815.6 451.588L1815.33 451.445C1823.58 461.874 1829.38 474.606 1831.61 488.521L1831.68 488.989C1830.72 489.08 1829.61 489.132 1828.48 489.132 1822.92 489.132 1817.65 487.909 1812.91 485.725L1813.14 485.816C1817.4 490.172 1822.71 493.462 1828.66 495.296L1828.92 495.361C1820.41 497.064 1812.99 500.901 1806.98 506.285L1807.02 506.246C1813.14 503.112 1820.37 501.265 1828.02 501.265 1829.77 501.265 1831.5 501.356 1833.19 501.551L1832.98 501.538C1823.06 529.81 1812.97 560.93 1803 594 1805.82 593.168 1808.01 591.035 1808.9 588.304L1808.91 588.239C1810.69 582.257 1822.58 542.957 1841.09 491.304L1843.12 485.647C1845.08 480.25 1847.12 474.723 1849.2 469.066L1850.66 465.216 1850.66 465.151 1836.05 436.373C1836 436.698 1835.9 437.023 1835.86 437.348ZM1858.29 445.06C1860.85 438.466 1863.48 431.899 1866.15 425.15 1868.69 418.751 1871.36 412.314 1874.03 405.812 1882.28 386.106 1890.96 366.582 1900.05 347.24L1903.38 340.347C1905.34 336.394 1907.24 332.467 1909.24 328.578 1909.32 328.331 1909.43 328.11 1909.57 327.928L1895.01 299.279 1894.3 300.41C1890.93 305.937 1887.57 311.568 1884.26 317.342 1878 328.214 1872.08 339.264 1866.49 350.491L1864.97 353.625C1858.05 367.28 1851.13 383.873 1845.34 400.974L1844.5 403.783C1841.61 412.288 1838.68 423.173 1836.38 434.292L1836.04 436.242 1850.62 465.008C1852.52 459.859 1854.53 454.644 1856.54 449.364ZM1918.97 309.852C1925.65 297.385 1932.73 285.143 1940.21 273.127L1940.86 272.087C1944.51 266.365 1948.18 260.825 1951.88 255.506L1940.73 234.491 1938.18 237.612C1934.98 241.591 1931.62 245.896 1928.21 250.447 1916.56 266.035 1905.62 282.122 1895.42 298.707L1895.05 299.318 1909.58 327.967C1912.67 321.829 1915.77 315.743 1918.94 309.8ZM1969.14 205.816C1958.28 214.087 1948.91 223.528 1940.97 234.101L1940.71 234.465 1951.87 255.493C1959.6 244.348 1967.41 234.621 1975.83 225.453L1975.65 225.661 1976.59 224.659C1976.26 224.971 1975.96 225.296 1975.68 225.648L1975.66 225.674C1967.88 234.647 1960.5 244.53 1953.9 254.947L1953.3 255.948C1969.78 254.752 1984.65 252.853 1999.25 250.2L1996.66 250.59C1997.74 246.884 1998.37 242.632 1998.37 238.236 1998.37 229.978 1996.18 222.24 1992.35 215.556L1992.47 215.777C1992.47 215.777 1981.73 198.39 1969.11 205.868ZM1852.82 471.329C1850.92 476.574 1848.99 481.949 1847.04 487.454L1846.96 487.701C1846.7 488.443 1846.44 489.223 1846.16 490.003 1844.85 493.696 1843.72 497.025 1841.12 504.633 1845.93 507.767 1849.71 512.15 1852.03 517.339L1852.11 517.521C1851.78 511.135 1848.93 505.465 1844.54 501.447L1844.53 501.434C1846.95 501.85 1849.74 502.084 1852.57 502.084 1869.15 502.084 1883.86 494.112 1893.07 481.797L1893.17 481.667C1893.87 480.497 1894.64 479.079 1895.31 477.61L1895.43 477.311C1891.69 481.901 1886.03 484.814 1879.69 484.814 1878.35 484.814 1877.05 484.684 1875.79 484.437L1875.92 484.463 1875.9 484.463C1887.94 479.938 1897.76 471.81 1904.3 461.406L1904.44 461.172C1905.96 458.688 1907.46 455.97 1909 452.992 1900.56 462.238 1888.47 468.012 1875.02 468.012 1871.7 468.012 1868.47 467.661 1865.36 466.998L1865.66 467.05 1853.94 468.312C1853.56 469.3 1853.19 470.293 1852.85 471.29ZM1911.78 330.438 1910.53 333.039C1909.27 335.64 1907.98 338.241 1906.69 340.971 1905.3 343.898 1903.89 346.889 1902.46 349.945L1900.31 354.613C1892.15 372.299 1884.41 390.176 1877.1 408.244 1874.44 414.694 1871.77 421.357 1869.08 428.232 1866.65 434.409 1864.25 440.664 1861.77 447.153L1861.44 448.129C1859.01 454.566 1856.56 461.159 1854.07 467.96L1853.91 468.403 1865.63 467.102C1865.38 467.089 1865.15 467.05 1864.93 466.998L1864.95 466.998C1882.78 463.318 1898.1 454.384 1909.65 441.912L1909.7 441.86C1915.4 435.644 1920.46 428.687 1924.7 421.196L1924.98 420.637C1928.18 415.071 1931.48 408.348 1934.36 401.416L1934.81 400.194C1937.54 393.614 1940.15 386.5 1942.62 378.776 1939.46 380.427 1935.8 381.754 1931.95 382.547L1931.67 382.599C1930.44 382.911 1928.93 383.171 1927.39 383.327L1927.23 383.34C1939.54 378.216 1949.18 368.801 1954.48 357.006L1954.61 356.681C1950.12 359.828 1944.85 362.221 1939.17 363.573L1938.86 363.638C1937.88 363.833 1936.97 363.989 1936.03 364.12L1935.33 364.224 1935.37 364.224C1939.84 362.39 1943.68 360.192 1947.19 357.578L1947.05 357.682C1951.18 354.561 1954.61 350.79 1957.31 346.511L1957.41 346.342 1958.44 344.652 1959.69 342.155C1961.59 338.488 1963.61 333.936 1965.37 329.254L1965.66 328.344 1966.16 326.914C1966.93 324.82 1967.62 322.297 1968.11 319.696L1968.16 319.384C1967.72 319.748 1967.21 320.099 1966.69 320.411L1966.64 320.437C1961.95 322.947 1956.53 324.859 1950.78 325.912L1950.45 325.964 1950.43 325.951 1950.16 325.951 1948.53 326.224 1948.81 326.094 1911.96 330.152 1911.76 330.503ZM1953.32 255.948C1950 260.981 1946.42 266.677 1942.58 273.179L1941.93 274.18C1934.71 286.379 1927.85 298.785 1921.35 311.399 1918.3 317.251 1915.18 323.459 1911.96 330.022L1948.84 325.964C1957.16 322.648 1964.02 317.173 1968.96 310.242L1969.05 310.099C1970.33 308.261 1971.57 306.41 1972.79 304.546 1976.52 298.642 1980.27 292.153 1983.58 285.689 1986.78 279.421 1989.59 273.231 1991.79 267.652 1993.15 264.076 1994.23 260.799 1995.01 257.899 1995.69 255.337 1996.21 252.905 1996.64 250.59 1984.61 252.853 1969.74 254.752 1954.64 255.87L1953.23 255.948ZM2022.58 239.706 2019.73 245.44 2016.93 239.706 2015.51 239.706 2015.51 247.924 2016.61 247.924 2016.61 241.37 2019.4 247.053 2020.13 247.053 2022.93 241.37 2022.93 247.937 2024 247.937 2024 239.718ZM2007.94 239.706 2007.94 240.772 2010.47 240.772 2010.47 247.924 2011.65 247.924 2011.65 240.772 2014.18 240.772 2014.18 239.706Z" fill="url(#fill0)" fill-rule="evenodd"/><rect x="1705" y="191" width="416" height="416" fill="#000000" fill-opacity="0"/></g></g></svg>