<svg width="421" height="422" xmlns="http://www.w3.org/2000/svg" xmlns:xlink="http://www.w3.org/1999/xlink" xml:space="preserve" overflow="hidden"><defs><linearGradient x1="3386.5" y1="219" x2="3386.5" y2="609" gradientUnits="userSpaceOnUse" spreadMethod="reflect" id="fill0"><stop offset="0" stop-color="#FDD089" stop-opacity="1"/><stop offset="0.00735294" stop-color="#FCCF88" stop-opacity="1"/><stop offset="0.0147059" stop-color="#FCCF88" stop-opacity="1"/><stop offset="0.0220588" stop-color="#FCCF88" stop-opacity="1"/><stop offset="0.0294118" stop-color="#FCCF88" stop-opacity="1"/><stop offset="0.0367647" stop-color="#FCCF88" stop-opacity="1"/><stop offset="0.0441176" stop-color="#FCCF88" stop-opacity="1"/><stop offset="0.0514706" stop-color="#FCCF88" stop-opacity="1"/><stop offset="0.0588235" stop-color="#FCCF88" stop-opacity="1"/><stop offset="0.0661765" stop-color="#FCCF88" stop-opacity="1"/><stop offset="0.0735294" stop-color="#FCCF87" stop-opacity="1"/><stop offset="0.0808824" stop-color="#FCCF87" stop-opacity="1"/><stop offset="0.0882353" stop-color="#FCCF87" stop-opacity="1"/><stop offset="0.0955882" stop-color="#FCCF87" stop-opacity="1"/><stop offset="0.102941" stop-color="#FCCF87" stop-opacity="1"/><stop offset="0.110294" stop-color="#FBCE86" stop-opacity="1"/><stop offset="0.117647" stop-color="#FBCE86" stop-opacity="1"/><stop offset="0.125" stop-color="#FBCE86" stop-opacity="1"/><stop offset="0.132353" stop-color="#FBCE85" stop-opacity="1"/><stop offset="0.139706" stop-color="#FBCE85" stop-opacity="1"/><stop offset="0.147059" stop-color="#FBCE85" stop-opacity="1"/><stop offset="0.154412" stop-color="#FBCD84" stop-opacity="1"/><stop offset="0.161765" stop-color="#FACD84" stop-opacity="1"/><stop offset="0.169118" stop-color="#FACD84" stop-opacity="1"/><stop offset="0.176471" stop-color="#FACD83" stop-opacity="1"/><stop offset="0.183824" stop-color="#FACD83" stop-opacity="1"/><stop offset="0.191176" stop-color="#FACC82" stop-opacity="1"/><stop offset="0.198529" stop-color="#F9CC82" stop-opacity="1"/><stop offset="0.205882" stop-color="#F9CC81" stop-opacity="1"/><stop offset="0.213235" stop-color="#F9CC81" stop-opacity="1"/><stop offset="0.220588" stop-color="#F9CB80" stop-opacity="1"/><stop offset="0.227941" stop-color="#F8CB80" stop-opacity="1"/><stop offset="0.235294" stop-color="#F8CB7F" stop-opacity="1"/><stop offset="0.242647" stop-color="#F8CB7F" stop-opacity="1"/><stop offset="0.25" stop-color="#F8CA7E" stop-opacity="1"/><stop offset="0.257353" stop-color="#F7CA7E" stop-opacity="1"/><stop offset="0.264706" stop-color="#F7CA7D" stop-opacity="1"/><stop offset="0.272059" stop-color="#F7C97D" stop-opacity="1"/><stop offset="0.279412" stop-color="#F6C97C" stop-opacity="1"/><stop offset="0.286765" stop-color="#F6C97B" stop-opacity="1"/><stop offset="0.294118" stop-color="#F6C87B" stop-opacity="1"/><stop offset="0.301471" stop-color="#F6C87A" stop-opacity="1"/><stop offset="0.308824" stop-color="#F5C879" stop-opacity="1"/><stop offset="0.316176" stop-color="#F5C779" stop-opacity="1"/><stop offset="0.323529" stop-color="#F5C778" stop-opacity="1"/><stop offset="0.330882" stop-color="#F4C777" stop-opacity="1"/><stop offset="0.338235" stop-color="#F4C677" stop-opacity="1"/><stop offset="0.345588" stop-color="#F3C676" stop-opacity="1"/><stop offset="0.352941" stop-color="#F3C575" stop-opacity="1"/><stop offset="0.360294" stop-color="#F3C574" stop-opacity="1"/><stop offset="0.367647" stop-color="#F2C574" stop-opacity="1"/><stop offset="0.375" stop-color="#F2C473" stop-opacity="1"/><stop offset="0.382353" stop-color="#F2C472" stop-opacity="1"/><stop offset="0.389706" stop-color="#F1C371" stop-opacity="1"/><stop offset="0.397059" stop-color="#F1C370" stop-opacity="1"/><stop offset="0.404412" stop-color="#F0C26F" stop-opacity="1"/><stop offset="0.411765" stop-color="#F0C26F" stop-opacity="1"/><stop offset="0.419118" stop-color="#F0C26E" stop-opacity="1"/><stop offset="0.426471" stop-color="#EFC16D" stop-opacity="1"/><stop offset="0.433824" stop-color="#EFC16C" stop-opacity="1"/><stop offset="0.441176" stop-color="#EEC06B" stop-opacity="1"/><stop offset="0.448529" stop-color="#EEC06A" stop-opacity="1"/><stop offset="0.455882" stop-color="#EDBF69" stop-opacity="1"/><stop offset="0.463235" stop-color="#EDBF68" stop-opacity="1"/><stop offset="0.470588" stop-color="#ECBE67" stop-opacity="1"/><stop offset="0.477941" stop-color="#ECBE66" stop-opacity="1"/><stop offset="0.485294" stop-color="#EBBD65" stop-opacity="1"/><stop offset="0.492647" stop-color="#EBBD64" stop-opacity="1"/><stop offset="0.5" stop-color="#EBBC63" stop-opacity="1"/><stop offset="0.507353" stop-color="#EABC62" stop-opacity="1"/><stop offset="0.514706" stop-color="#EABB61" stop-opacity="1"/><stop offset="0.522059" stop-color="#E9BB60" stop-opacity="1"/><stop offset="0.529412" stop-color="#E8BA5F" stop-opacity="1"/><stop offset="0.536765" stop-color="#E8B95E" stop-opacity="1"/><stop offset="0.544118" stop-color="#E7B95D" stop-opacity="1"/><stop offset="0.551471" stop-color="#E7B85C" stop-opacity="1"/><stop offset="0.558824" stop-color="#E6B85A" stop-opacity="1"/><stop offset="0.566176" stop-color="#E6B759" stop-opacity="1"/><stop offset="0.573529" stop-color="#E5B658" stop-opacity="1"/><stop offset="0.580882" stop-color="#E5B657" stop-opacity="1"/><stop offset="0.588235" stop-color="#E4B556" stop-opacity="1"/><stop offset="0.595588" stop-color="#E4B555" stop-opacity="1"/><stop offset="0.602941" stop-color="#E3B453" stop-opacity="1"/><stop offset="0.610294" stop-color="#E2B352" stop-opacity="1"/><stop offset="0.617647" stop-color="#E2B351" stop-opacity="1"/><stop offset="0.625" stop-color="#E1B250" stop-opacity="1"/><stop offset="0.632353" stop-color="#E1B14E" stop-opacity="1"/><stop offset="0.639706" stop-color="#E0B14D" stop-opacity="1"/><stop offset="0.647059" stop-color="#DFB04C" stop-opacity="1"/><stop offset="0.654412" stop-color="#DFAF4B" stop-opacity="1"/><stop offset="0.661765" stop-color="#DEAF49" stop-opacity="1"/><stop offset="0.669118" stop-color="#DDAE48" stop-opacity="1"/><stop offset="0.676471" stop-color="#DDAD47" stop-opacity="1"/><stop offset="0.683824" stop-color="#DCAD45" stop-opacity="1"/><stop offset="0.691176" stop-color="#DBAC44" stop-opacity="1"/><stop offset="0.698529" stop-color="#DBAB43" stop-opacity="1"/><stop offset="0.705882" stop-color="#DAAB41" stop-opacity="1"/><stop offset="0.713235" stop-color="#D9AA40" stop-opacity="1"/><stop offset="0.720588" stop-color="#D9A93E" stop-opacity="1"/><stop offset="0.727941" stop-color="#D8A83D" stop-opacity="1"/><stop offset="0.735294" stop-color="#D7A83C" stop-opacity="1"/><stop offset="0.742647" stop-color="#D7A73A" stop-opacity="1"/><stop offset="0.75" stop-color="#D6A639" stop-opacity="1"/><stop offset="0.757353" stop-color="#D5A537" stop-opacity="1"/><stop offset="0.764706" stop-color="#D5A536" stop-opacity="1"/><stop offset="0.772059" stop-color="#D4A434" stop-opacity="1"/><stop offset="0.779412" stop-color="#D3A333" stop-opacity="1"/><stop offset="0.786765" stop-color="#D2A231" stop-opacity="1"/><stop offset="0.794118" stop-color="#D2A130" stop-opacity="1"/><stop offset="0.801471" stop-color="#D1A12E" stop-opacity="1"/><stop offset="0.808824" stop-color="#D0A02C" stop-opacity="1"/><stop offset="0.816176" stop-color="#CF9F2B" stop-opacity="1"/><stop offset="0.823529" stop-color="#CF9E29" stop-opacity="1"/><stop offset="0.830882" stop-color="#CE9D28" stop-opacity="1"/><stop offset="0.838235" stop-color="#CD9D26" stop-opacity="1"/><stop offset="0.845588" stop-color="#CC9C24" stop-opacity="1"/><stop offset="0.852941" stop-color="#CC9B23" stop-opacity="1"/><stop offset="0.860294" stop-color="#CB9A21" stop-opacity="1"/><stop offset="0.867647" stop-color="#CA9920" stop-opacity="1"/><stop offset="0.875" stop-color="#C9981E" stop-opacity="1"/><stop offset="0.882353" stop-color="#C8971C" stop-opacity="1"/><stop offset="0.889706" stop-color="#C7961A" stop-opacity="1"/><stop offset="0.897059" stop-color="#C79619" stop-opacity="1"/><stop offset="0.904412" stop-color="#C69517" stop-opacity="1"/><stop offset="0.911765" stop-color="#C59415" stop-opacity="1"/><stop offset="0.919118" stop-color="#C49314" stop-opacity="1"/><stop offset="0.926471" stop-color="#C39212" stop-opacity="1"/><stop offset="0.933824" stop-color="#C29110" stop-opacity="1"/><stop offset="0.941176" stop-color="#C2900E" stop-opacity="1"/><stop offset="0.948529" stop-color="#C18F0C" stop-opacity="1"/><stop offset="0.955882" stop-color="#C08E0B" stop-opacity="1"/><stop offset="0.963235" stop-color="#BF8D09" stop-opacity="1"/><stop offset="0.970588" stop-color="#BE8C07" stop-opacity="1"/><stop offset="0.977941" stop-color="#BD8B05" stop-opacity="1"/><stop offset="0.985294" stop-color="#BC8A03" stop-opacity="1"/><stop offset="0.992647" stop-color="#BB8901" stop-opacity="1"/><stop offset="1" stop-color="#BB8900" stop-opacity="1"/></linearGradient></defs><g transform="translate(-3176 -201)"><g><path d="M3192 414C3192 306.304 3279.08 219 3386.5 219 3493.92 219 3581 306.304 3581 414 3581 521.696 3493.92 609 3386.5 609 3279.08 609 3192 521.696 3192 414Z" fill="url(#fill0)" fill-rule="evenodd"/><path d="M3506.83 395.299C3506.21 394.803 3500.68 390.646 3489.01 390.646 3485.91 390.646 3482.82 390.875 3479.77 391.447 3477.52 375.927 3464.7 368.376 3464.13 368.033L3461 366.202 3458.94 369.177C3456.34 373.181 3454.47 377.566 3453.36 382.219 3451.27 391.066 3452.53 399.379 3457.03 406.472 3451.61 409.485 3442.87 410.247 3441.12 410.285L3296.84 410.285C3293.06 410.285 3290.01 413.336 3290.01 417.112 3289.85 429.734 3291.99 442.28 3296.3 454.14 3301.26 467.182 3308.67 476.754 3318.28 482.626 3329.04 489.223 3346.56 492.999 3366.44 492.999 3375.41 493.037 3384.37 492.198 3393.19 490.558 3405.44 488.308 3417.23 484.037 3428.07 477.898 3436.99 472.711 3445.05 466.152 3451.88 458.411 3463.29 445.484 3470.12 431.069 3475.19 418.294L3477.21 418.294C3489.73 418.294 3497.44 413.298 3501.67 409.103 3504.5 406.434 3506.71 403.193 3508.12 399.57L3509 396.938 3506.83 395.299ZM3310.19 406.129 3329.54 406.129C3330.46 406.129 3331.22 405.366 3331.22 404.451L3331.22 387.252C3331.22 386.337 3330.46 385.574 3329.54 385.536L3310.19 385.536C3309.28 385.536 3308.51 386.299 3308.51 387.214L3308.51 404.451C3308.51 405.404 3309.28 406.129 3310.19 406.129M3336.87 406.129 3356.21 406.129C3357.13 406.129 3357.89 405.366 3357.89 404.451L3357.89 387.252C3357.89 386.337 3357.13 385.574 3356.21 385.536L3336.87 385.536C3335.91 385.536 3335.15 386.299 3335.15 387.252L3335.15 404.451C3335.15 405.404 3335.91 406.129 3336.87 406.129M3363.88 406.167 3383.23 406.167C3384.14 406.167 3384.91 405.404 3384.91 404.489L3384.91 387.29C3384.91 386.375 3384.14 385.613 3383.23 385.574L3363.88 385.574C3362.97 385.574 3362.2 386.337 3362.2 387.252L3362.2 404.489C3362.2 405.404 3362.97 406.129 3363.88 406.167M3390.63 406.167 3409.98 406.167C3410.89 406.167 3411.66 405.404 3411.7 404.489L3411.7 387.29C3411.7 386.337 3410.93 385.574 3409.98 385.574L3390.63 385.574C3389.72 385.574 3388.95 386.337 3388.95 387.252L3388.95 404.489C3388.95 405.404 3389.68 406.167 3390.63 406.167M3336.83 381.38 3356.17 381.38C3357.09 381.38 3357.85 380.617 3357.85 379.664L3357.85 362.465C3357.85 361.55 3357.09 360.787 3356.17 360.787L3336.83 360.787C3335.87 360.787 3335.15 361.55 3335.11 362.465L3335.11 379.664C3335.15 380.617 3335.91 381.38 3336.83 381.38M3363.88 381.38 3383.23 381.38C3384.14 381.38 3384.91 380.617 3384.91 379.664L3384.91 362.465C3384.91 361.55 3384.14 360.787 3383.23 360.787L3363.88 360.787C3362.97 360.787 3362.2 361.55 3362.2 362.465L3362.2 379.664C3362.2 380.617 3362.97 381.38 3363.88 381.38M3390.63 381.38 3409.98 381.38C3410.93 381.38 3411.66 380.617 3411.7 379.664L3411.7 362.465C3411.7 361.512 3410.93 360.787 3409.98 360.787L3390.63 360.787C3389.72 360.787 3388.95 361.55 3388.95 362.465L3388.95 379.664C3388.95 380.617 3389.68 381.38 3390.63 381.38M3390.63 356.631 3409.98 356.631C3410.93 356.631 3411.7 355.868 3411.7 354.915L3411.7 337.678C3411.7 336.762 3410.93 336 3409.98 336L3390.63 336C3389.72 336 3388.95 336.762 3388.95 337.678L3388.95 354.915C3388.95 355.868 3389.68 356.631 3390.63 356.631M3417.57 406.167 3436.92 406.167C3437.83 406.167 3438.6 405.404 3438.6 404.489L3438.6 387.29C3438.6 386.337 3437.83 385.613 3436.92 385.574L3417.57 385.574C3416.66 385.574 3415.89 386.337 3415.89 387.252L3415.89 404.489C3415.89 405.404 3416.66 406.167 3417.57 406.167" fill="#FFFFFF" fill-rule="evenodd" fill-opacity="1"/><rect x="3179" y="206" width="415" height="416" fill="#000000" fill-opacity="0"/></g></g></svg>