<svg width="422" height="422" xmlns="http://www.w3.org/2000/svg" xmlns:xlink="http://www.w3.org/1999/xlink" xml:space="preserve" overflow="hidden"><defs><linearGradient x1="945" y1="1027" x2="945" y2="1183" gradientUnits="userSpaceOnUse" spreadMethod="reflect" id="fill0"><stop offset="0" stop-color="#FFBE62" stop-opacity="1"/><stop offset="0.0103093" stop-color="#FEBD61" stop-opacity="1"/><stop offset="0.0206186" stop-color="#FEBD61" stop-opacity="1"/><stop offset="0.0309278" stop-color="#FEBD61" stop-opacity="1"/><stop offset="0.0412371" stop-color="#FEBD61" stop-opacity="1"/><stop offset="0.0515464" stop-color="#FEBD61" stop-opacity="1"/><stop offset="0.0618557" stop-color="#FEBD61" stop-opacity="1"/><stop offset="0.0721649" stop-color="#FEBD61" stop-opacity="1"/><stop offset="0.0824742" stop-color="#FEBD61" stop-opacity="1"/><stop offset="0.0927835" stop-color="#FEBD60" stop-opacity="1"/><stop offset="0.103093" stop-color="#FEBD60" stop-opacity="1"/><stop offset="0.113402" stop-color="#FDBD60" stop-opacity="1"/><stop offset="0.123711" stop-color="#FDBC60" stop-opacity="1"/><stop offset="0.134021" stop-color="#FDBC5F" stop-opacity="1"/><stop offset="0.14433" stop-color="#FDBC5F" stop-opacity="1"/><stop offset="0.154639" stop-color="#FCBC5F" stop-opacity="1"/><stop offset="0.164948" stop-color="#FCBC5E" stop-opacity="1"/><stop offset="0.175258" stop-color="#FCBB5E" stop-opacity="1"/><stop offset="0.185567" stop-color="#FCBB5D" stop-opacity="1"/><stop offset="0.195876" stop-color="#FBBB5D" stop-opacity="1"/><stop offset="0.206186" stop-color="#FBBB5C" stop-opacity="1"/><stop offset="0.216495" stop-color="#FBBA5C" stop-opacity="1"/><stop offset="0.226804" stop-color="#FABA5B" stop-opacity="1"/><stop offset="0.237113" stop-color="#FABA5B" stop-opacity="1"/><stop offset="0.247423" stop-color="#FABA5A" stop-opacity="1"/><stop offset="0.257732" stop-color="#F9B95A" stop-opacity="1"/><stop offset="0.268041" stop-color="#F9B959" stop-opacity="1"/><stop offset="0.278351" stop-color="#F8B959" stop-opacity="1"/><stop offset="0.28866" stop-color="#F8B858" stop-opacity="1"/><stop offset="0.298969" stop-color="#F7B857" stop-opacity="1"/><stop offset="0.309278" stop-color="#F7B857" stop-opacity="1"/><stop offset="0.319588" stop-color="#F6B756" stop-opacity="1"/><stop offset="0.329897" stop-color="#F6B755" stop-opacity="1"/><stop offset="0.340206" stop-color="#F5B655" stop-opacity="1"/><stop offset="0.350515" stop-color="#F5B654" stop-opacity="1"/><stop offset="0.360825" stop-color="#F4B653" stop-opacity="1"/><stop offset="0.371134" stop-color="#F4B552" stop-opacity="1"/><stop offset="0.381443" stop-color="#F3B551" stop-opacity="1"/><stop offset="0.391753" stop-color="#F3B451" stop-opacity="1"/><stop offset="0.402062" stop-color="#F2B450" stop-opacity="1"/><stop offset="0.412371" stop-color="#F2B34F" stop-opacity="1"/><stop offset="0.42268" stop-color="#F1B34E" stop-opacity="1"/><stop offset="0.43299" stop-color="#F0B24D" stop-opacity="1"/><stop offset="0.443299" stop-color="#F0B24C" stop-opacity="1"/><stop offset="0.453608" stop-color="#EFB14B" stop-opacity="1"/><stop offset="0.463918" stop-color="#EEB14A" stop-opacity="1"/><stop offset="0.474227" stop-color="#EEB049" stop-opacity="1"/><stop offset="0.484536" stop-color="#EDB048" stop-opacity="1"/><stop offset="0.494845" stop-color="#ECAF47" stop-opacity="1"/><stop offset="0.505155" stop-color="#ECAF46" stop-opacity="1"/><stop offset="0.515464" stop-color="#EBAE45" stop-opacity="1"/><stop offset="0.525773" stop-color="#EAAE44" stop-opacity="1"/><stop offset="0.536082" stop-color="#E9AD43" stop-opacity="1"/><stop offset="0.546392" stop-color="#E9AC42" stop-opacity="1"/><stop offset="0.556701" stop-color="#E8AC41" stop-opacity="1"/><stop offset="0.56701" stop-color="#E7AB40" stop-opacity="1"/><stop offset="0.57732" stop-color="#E6AB3F" stop-opacity="1"/><stop offset="0.587629" stop-color="#E5AA3D" stop-opacity="1"/><stop offset="0.597938" stop-color="#E5A93C" stop-opacity="1"/><stop offset="0.608247" stop-color="#E4A93B" stop-opacity="1"/><stop offset="0.618557" stop-color="#E3A83A" stop-opacity="1"/><stop offset="0.628866" stop-color="#E2A738" stop-opacity="1"/><stop offset="0.639175" stop-color="#E1A737" stop-opacity="1"/><stop offset="0.649485" stop-color="#E0A636" stop-opacity="1"/><stop offset="0.659794" stop-color="#DFA535" stop-opacity="1"/><stop offset="0.670103" stop-color="#DEA433" stop-opacity="1"/><stop offset="0.680412" stop-color="#DDA432" stop-opacity="1"/><stop offset="0.690722" stop-color="#DDA331" stop-opacity="1"/><stop offset="0.701031" stop-color="#DCA22F" stop-opacity="1"/><stop offset="0.71134" stop-color="#DBA22E" stop-opacity="1"/><stop offset="0.721649" stop-color="#DAA12C" stop-opacity="1"/><stop offset="0.731959" stop-color="#D9A02B" stop-opacity="1"/><stop offset="0.742268" stop-color="#D89F29" stop-opacity="1"/><stop offset="0.752577" stop-color="#D79E28" stop-opacity="1"/><stop offset="0.762887" stop-color="#D69E27" stop-opacity="1"/><stop offset="0.773196" stop-color="#D59D25" stop-opacity="1"/><stop offset="0.783505" stop-color="#D39C23" stop-opacity="1"/><stop offset="0.793814" stop-color="#D29B22" stop-opacity="1"/><stop offset="0.804124" stop-color="#D19A20" stop-opacity="1"/><stop offset="0.814433" stop-color="#D0991F" stop-opacity="1"/><stop offset="0.824742" stop-color="#CF991D" stop-opacity="1"/><stop offset="0.835052" stop-color="#CE981C" stop-opacity="1"/><stop offset="0.845361" stop-color="#CD971A" stop-opacity="1"/><stop offset="0.85567" stop-color="#CC9618" stop-opacity="1"/><stop offset="0.865979" stop-color="#CB9517" stop-opacity="1"/><stop offset="0.876289" stop-color="#C99415" stop-opacity="1"/><stop offset="0.886598" stop-color="#C89313" stop-opacity="1"/><stop offset="0.896907" stop-color="#C79212" stop-opacity="1"/><stop offset="0.907216" stop-color="#C69110" stop-opacity="1"/><stop offset="0.917526" stop-color="#C5900E" stop-opacity="1"/><stop offset="0.927835" stop-color="#C38F0C" stop-opacity="1"/><stop offset="0.938144" stop-color="#C28E0B" stop-opacity="1"/><stop offset="0.948454" stop-color="#C18E09" stop-opacity="1"/><stop offset="0.958763" stop-color="#C08D07" stop-opacity="1"/><stop offset="0.969072" stop-color="#BE8C05" stop-opacity="1"/><stop offset="0.979381" stop-color="#BD8B03" stop-opacity="1"/><stop offset="0.989691" stop-color="#BC8A01" stop-opacity="1"/><stop offset="1" stop-color="#BB8900" stop-opacity="1"/></linearGradient></defs><g transform="translate(-733 -893)"><g><path d="M750 1027 750 1037.67 825.913 1037.67 825.913 1027 750 1027ZM836.668 1027 836.668 1037.67 944.848 1037.67C944.848 1037.67 933.798 1027 919.162 1027L836.668 1027ZM966.069 1027 966.069 1037.67 1031.52 1037.67 1027.63 1027 966.069 1027ZM1078.44 1027 1074.55 1037.67 1139.41 1037.67 1139.41 1027 1078.44 1027ZM750 1047.76 750 1058.43 825.913 1058.43 825.913 1047.76 750 1047.76ZM836.668 1047.77 836.668 1058.43 957.401 1058.43C957.401 1058.43 955.991 1050.22 953.531 1047.77L836.668 1047.77ZM966.069 1047.77 966.069 1058.43 1038.69 1058.43 1035.1 1047.77 966.069 1047.77ZM1070.67 1047.77 1067.07 1058.43 1139.41 1058.43 1139.41 1047.77 1070.67 1047.77ZM771.815 1068.51 771.815 1079.2 804.691 1079.2 804.691 1068.51 771.815 1068.51ZM858.484 1068.51 858.484 1079.2 891.36 1079.2 891.36 1068.51 858.484 1068.51ZM923.337 1068.51 923.337 1079.2 956.212 1079.2C956.212 1079.2 958.3 1073.56 958.3 1068.51L923.337 1068.51ZM987.885 1068.51 987.885 1079.2 1046.17 1079.2 1042.29 1068.51 987.885 1068.51ZM1063.51 1068.51 1059.61 1079.2 1118.18 1079.2 1118.18 1068.51 1063.51 1068.51ZM771.815 1089.29 771.815 1099.96 804.691 1099.96 804.691 1089.29 771.815 1089.29ZM858.484 1089.29 858.484 1099.96 942.456 1099.96C942.456 1099.96 949.48 1094.48 951.718 1089.29L858.484 1089.29ZM987.885 1089.29 987.885 1099.96 1020.76 1099.96 1020.76 1094.02 1022.85 1099.96 1083.07 1099.96 1085.31 1094.02 1085.31 1099.96 1118.18 1099.96 1118.18 1089.29 1056.47 1089.29 1053.19 1098.33 1049.9 1089.29 987.885 1089.29ZM771.815 1110.04 771.815 1120.72 804.691 1120.72 804.691 1110.04 771.815 1110.04ZM858.484 1110.04 858.484 1120.72 951.718 1120.72C949.48 1115.54 942.456 1110.04 942.456 1110.04L858.484 1110.04ZM987.885 1110.04 987.885 1120.72 1020.76 1120.72 1020.76 1110.04 987.885 1110.04ZM1026.73 1110.04 1030.71 1120.72 1075.86 1120.72 1079.64 1110.04 1026.73 1110.04ZM1085.31 1110.04 1085.31 1120.72 1118.18 1120.72 1118.18 1110.04 1085.31 1110.04ZM771.815 1130.8 771.815 1141.47 804.691 1141.47 804.691 1130.8 771.815 1130.8ZM858.484 1130.8 858.484 1141.47 891.36 1141.47 891.36 1130.8 858.484 1130.8ZM923.337 1130.8 923.337 1141.47 958.299 1141.47C958.299 1136.43 956.212 1130.8 956.212 1130.8L923.337 1130.8ZM987.885 1130.8 987.885 1141.47 1020.76 1141.47 1020.76 1130.8 987.885 1130.8ZM1034.2 1130.8 1038.05 1141.47 1068.32 1141.47 1072.21 1130.8 1034.2 1130.8ZM1085.31 1130.8 1085.31 1141.47 1118.18 1141.47 1118.18 1130.8 1085.31 1130.8ZM750.594 1151.56 750.594 1162.24 826.507 1162.24 826.507 1151.56 750.594 1151.56ZM836.668 1151.56 836.668 1162.24 953.531 1162.24C955.991 1159.8 957.401 1151.56 957.401 1151.56L836.668 1151.56ZM966.663 1151.56 966.663 1162.24 1020.76 1162.24 1020.76 1151.56 966.663 1151.56ZM1041.68 1151.56 1045.64 1162.24 1061.04 1162.24 1064.76 1151.56 1041.68 1151.56ZM1085.31 1151.56 1085.31 1162.24 1140 1162.24 1140 1151.56 1085.31 1151.56ZM750.594 1172.33 750.594 1183 826.507 1183 826.507 1172.33 750.594 1172.33ZM836.668 1172.33 836.668 1182.98 919.162 1182.98C933.798 1182.98 944.848 1172.33 944.848 1172.33L836.668 1172.33ZM966.663 1172.33 966.663 1183 1020.76 1183 1020.76 1172.33 966.663 1172.33ZM1049.19 1172.33 1053 1182.97 1053.65 1182.98 1057.52 1172.33 1049.19 1172.33ZM1085.31 1172.33 1085.31 1183 1140 1183 1140 1172.33 1085.31 1172.33Z" fill="url(#fill0)" fill-rule="evenodd"/><rect x="737" y="897" width="416" height="416" fill="#000000" fill-opacity="0"/></g></g></svg>