<svg width="422" height="422" xmlns="http://www.w3.org/2000/svg" xmlns:xlink="http://www.w3.org/1999/xlink" xml:space="preserve" overflow="hidden"><defs><linearGradient x1="2049.5" y1="895" x2="2049.5" y2="1236" gradientUnits="userSpaceOnUse" spreadMethod="reflect" id="fill0"><stop offset="0" stop-color="#FDD089" stop-opacity="1"/><stop offset="0.00735294" stop-color="#FCCF88" stop-opacity="1"/><stop offset="0.0147059" stop-color="#FCCF88" stop-opacity="1"/><stop offset="0.0220588" stop-color="#FCCF88" stop-opacity="1"/><stop offset="0.0294118" stop-color="#FCCF88" stop-opacity="1"/><stop offset="0.0367647" stop-color="#FCCF88" stop-opacity="1"/><stop offset="0.0441176" stop-color="#FCCF88" stop-opacity="1"/><stop offset="0.0514706" stop-color="#FCCF88" stop-opacity="1"/><stop offset="0.0588235" stop-color="#FCCF88" stop-opacity="1"/><stop offset="0.0661765" stop-color="#FCCF88" stop-opacity="1"/><stop offset="0.0735294" stop-color="#FCCF87" stop-opacity="1"/><stop offset="0.0808824" stop-color="#FCCF87" stop-opacity="1"/><stop offset="0.0882353" stop-color="#FCCF87" stop-opacity="1"/><stop offset="0.0955882" stop-color="#FCCF87" stop-opacity="1"/><stop offset="0.102941" stop-color="#FCCF87" stop-opacity="1"/><stop offset="0.110294" stop-color="#FBCE86" stop-opacity="1"/><stop offset="0.117647" stop-color="#FBCE86" stop-opacity="1"/><stop offset="0.125" stop-color="#FBCE86" stop-opacity="1"/><stop offset="0.132353" stop-color="#FBCE85" stop-opacity="1"/><stop offset="0.139706" stop-color="#FBCE85" stop-opacity="1"/><stop offset="0.147059" stop-color="#FBCE85" stop-opacity="1"/><stop offset="0.154412" stop-color="#FBCD84" stop-opacity="1"/><stop offset="0.161765" stop-color="#FACD84" stop-opacity="1"/><stop offset="0.169118" stop-color="#FACD84" stop-opacity="1"/><stop offset="0.176471" stop-color="#FACD83" stop-opacity="1"/><stop offset="0.183824" stop-color="#FACD83" stop-opacity="1"/><stop offset="0.191176" stop-color="#FACC82" stop-opacity="1"/><stop offset="0.198529" stop-color="#F9CC82" stop-opacity="1"/><stop offset="0.205882" stop-color="#F9CC81" stop-opacity="1"/><stop offset="0.213235" stop-color="#F9CC81" stop-opacity="1"/><stop offset="0.220588" stop-color="#F9CB80" stop-opacity="1"/><stop offset="0.227941" stop-color="#F8CB80" stop-opacity="1"/><stop offset="0.235294" stop-color="#F8CB7F" stop-opacity="1"/><stop offset="0.242647" stop-color="#F8CB7F" stop-opacity="1"/><stop offset="0.25" stop-color="#F8CA7E" stop-opacity="1"/><stop offset="0.257353" stop-color="#F7CA7E" stop-opacity="1"/><stop offset="0.264706" stop-color="#F7CA7D" stop-opacity="1"/><stop offset="0.272059" stop-color="#F7C97D" stop-opacity="1"/><stop offset="0.279412" stop-color="#F6C97C" stop-opacity="1"/><stop offset="0.286765" stop-color="#F6C97B" stop-opacity="1"/><stop offset="0.294118" stop-color="#F6C87B" stop-opacity="1"/><stop offset="0.301471" stop-color="#F6C87A" stop-opacity="1"/><stop offset="0.308824" stop-color="#F5C879" stop-opacity="1"/><stop offset="0.316176" stop-color="#F5C779" stop-opacity="1"/><stop offset="0.323529" stop-color="#F5C778" stop-opacity="1"/><stop offset="0.330882" stop-color="#F4C777" stop-opacity="1"/><stop offset="0.338235" stop-color="#F4C677" stop-opacity="1"/><stop offset="0.345588" stop-color="#F3C676" stop-opacity="1"/><stop offset="0.352941" stop-color="#F3C575" stop-opacity="1"/><stop offset="0.360294" stop-color="#F3C574" stop-opacity="1"/><stop offset="0.367647" stop-color="#F2C574" stop-opacity="1"/><stop offset="0.375" stop-color="#F2C473" stop-opacity="1"/><stop offset="0.382353" stop-color="#F2C472" stop-opacity="1"/><stop offset="0.389706" stop-color="#F1C371" stop-opacity="1"/><stop offset="0.397059" stop-color="#F1C370" stop-opacity="1"/><stop offset="0.404412" stop-color="#F0C26F" stop-opacity="1"/><stop offset="0.411765" stop-color="#F0C26F" stop-opacity="1"/><stop offset="0.419118" stop-color="#F0C26E" stop-opacity="1"/><stop offset="0.426471" stop-color="#EFC16D" stop-opacity="1"/><stop offset="0.433824" stop-color="#EFC16C" stop-opacity="1"/><stop offset="0.441176" stop-color="#EEC06B" stop-opacity="1"/><stop offset="0.448529" stop-color="#EEC06A" stop-opacity="1"/><stop offset="0.455882" stop-color="#EDBF69" stop-opacity="1"/><stop offset="0.463235" stop-color="#EDBF68" stop-opacity="1"/><stop offset="0.470588" stop-color="#ECBE67" stop-opacity="1"/><stop offset="0.477941" stop-color="#ECBE66" stop-opacity="1"/><stop offset="0.485294" stop-color="#EBBD65" stop-opacity="1"/><stop offset="0.492647" stop-color="#EBBD64" stop-opacity="1"/><stop offset="0.5" stop-color="#EBBC63" stop-opacity="1"/><stop offset="0.507353" stop-color="#EABC62" stop-opacity="1"/><stop offset="0.514706" stop-color="#EABB61" stop-opacity="1"/><stop offset="0.522059" stop-color="#E9BB60" stop-opacity="1"/><stop offset="0.529412" stop-color="#E8BA5F" stop-opacity="1"/><stop offset="0.536765" stop-color="#E8B95E" stop-opacity="1"/><stop offset="0.544118" stop-color="#E7B95D" stop-opacity="1"/><stop offset="0.551471" stop-color="#E7B85C" stop-opacity="1"/><stop offset="0.558824" stop-color="#E6B85A" stop-opacity="1"/><stop offset="0.566176" stop-color="#E6B759" stop-opacity="1"/><stop offset="0.573529" stop-color="#E5B658" stop-opacity="1"/><stop offset="0.580882" stop-color="#E5B657" stop-opacity="1"/><stop offset="0.588235" stop-color="#E4B556" stop-opacity="1"/><stop offset="0.595588" stop-color="#E4B555" stop-opacity="1"/><stop offset="0.602941" stop-color="#E3B453" stop-opacity="1"/><stop offset="0.610294" stop-color="#E2B352" stop-opacity="1"/><stop offset="0.617647" stop-color="#E2B351" stop-opacity="1"/><stop offset="0.625" stop-color="#E1B250" stop-opacity="1"/><stop offset="0.632353" stop-color="#E1B14E" stop-opacity="1"/><stop offset="0.639706" stop-color="#E0B14D" stop-opacity="1"/><stop offset="0.647059" stop-color="#DFB04C" stop-opacity="1"/><stop offset="0.654412" stop-color="#DFAF4B" stop-opacity="1"/><stop offset="0.661765" stop-color="#DEAF49" stop-opacity="1"/><stop offset="0.669118" stop-color="#DDAE48" stop-opacity="1"/><stop offset="0.676471" stop-color="#DDAD47" stop-opacity="1"/><stop offset="0.683824" stop-color="#DCAD45" stop-opacity="1"/><stop offset="0.691176" stop-color="#DBAC44" stop-opacity="1"/><stop offset="0.698529" stop-color="#DBAB43" stop-opacity="1"/><stop offset="0.705882" stop-color="#DAAB41" stop-opacity="1"/><stop offset="0.713235" stop-color="#D9AA40" stop-opacity="1"/><stop offset="0.720588" stop-color="#D9A93E" stop-opacity="1"/><stop offset="0.727941" stop-color="#D8A83D" stop-opacity="1"/><stop offset="0.735294" stop-color="#D7A83C" stop-opacity="1"/><stop offset="0.742647" stop-color="#D7A73A" stop-opacity="1"/><stop offset="0.75" stop-color="#D6A639" stop-opacity="1"/><stop offset="0.757353" stop-color="#D5A537" stop-opacity="1"/><stop offset="0.764706" stop-color="#D5A536" stop-opacity="1"/><stop offset="0.772059" stop-color="#D4A434" stop-opacity="1"/><stop offset="0.779412" stop-color="#D3A333" stop-opacity="1"/><stop offset="0.786765" stop-color="#D2A231" stop-opacity="1"/><stop offset="0.794118" stop-color="#D2A130" stop-opacity="1"/><stop offset="0.801471" stop-color="#D1A12E" stop-opacity="1"/><stop offset="0.808824" stop-color="#D0A02C" stop-opacity="1"/><stop offset="0.816176" stop-color="#CF9F2B" stop-opacity="1"/><stop offset="0.823529" stop-color="#CF9E29" stop-opacity="1"/><stop offset="0.830882" stop-color="#CE9D28" stop-opacity="1"/><stop offset="0.838235" stop-color="#CD9D26" stop-opacity="1"/><stop offset="0.845588" stop-color="#CC9C24" stop-opacity="1"/><stop offset="0.852941" stop-color="#CC9B23" stop-opacity="1"/><stop offset="0.860294" stop-color="#CB9A21" stop-opacity="1"/><stop offset="0.867647" stop-color="#CA9920" stop-opacity="1"/><stop offset="0.875" stop-color="#C9981E" stop-opacity="1"/><stop offset="0.882353" stop-color="#C8971C" stop-opacity="1"/><stop offset="0.889706" stop-color="#C7961A" stop-opacity="1"/><stop offset="0.897059" stop-color="#C79619" stop-opacity="1"/><stop offset="0.904412" stop-color="#C69517" stop-opacity="1"/><stop offset="0.911765" stop-color="#C59415" stop-opacity="1"/><stop offset="0.919118" stop-color="#C49314" stop-opacity="1"/><stop offset="0.926471" stop-color="#C39212" stop-opacity="1"/><stop offset="0.933824" stop-color="#C29110" stop-opacity="1"/><stop offset="0.941176" stop-color="#C2900E" stop-opacity="1"/><stop offset="0.948529" stop-color="#C18F0C" stop-opacity="1"/><stop offset="0.955882" stop-color="#C08E0B" stop-opacity="1"/><stop offset="0.963235" stop-color="#BF8D09" stop-opacity="1"/><stop offset="0.970588" stop-color="#BE8C07" stop-opacity="1"/><stop offset="0.977941" stop-color="#BD8B05" stop-opacity="1"/><stop offset="0.985294" stop-color="#BC8A03" stop-opacity="1"/><stop offset="0.992647" stop-color="#BB8901" stop-opacity="1"/><stop offset="1" stop-color="#BB8900" stop-opacity="1"/></linearGradient></defs><g transform="translate(-1837 -852)"><g><path d="M1927.71 895 2171.29 895C2198.08 895 2220 916.922 2220 943.714L2220 1187.29C2220 1214.08 2198.08 1236 2171.29 1236L1927.71 1236C1900.92 1236 1879 1214.08 1879 1187.29L1879 943.714C1879 916.922 1900.92 895 1927.71 895Z" fill="url(#fill0)" fill-rule="evenodd"/><path d="M2028.42 962.837C2014.96 951.822 1999.05 943.254 1981.92 938.359 1996.61 946.926 2012.51 955.493 2023.53 967.732 2022.3 978.748 2008.84 986.091 1991.71 984.867 1991.71 983.643 1992.93 983.643 1992.93 982.419 1989.26 981.195 1984.37 982.419 1980.7 979.971 1980.7 978.748 1981.92 978.748 1981.92 977.524 1978.25 976.3 1974.58 975.076 1972.13 972.628 1972.13 971.404 1974.58 972.628 1974.58 970.18 1972.13 967.732 1968.46 966.508 1966.01 964.061 1967.24 962.837 1968.46 964.061 1969.68 962.837 1966.01 959.165 1963.57 957.941 1961.12 955.493 1962.34 954.269 1963.57 955.493 1964.79 954.269 1962.34 950.598 1958.67 949.374 1957.45 945.702 1958.67 945.702 1961.12 946.926 1962.34 944.478 1959.89 942.03 1956.22 940.806 1955 937.135 1956.22 935.911 1957.45 937.135 1958.67 935.911 1958.67 932.239 1956.22 931.015 1955 927.343 1958.67 926.119 1962.34 927.343 1964.79 926.119 1964.79 924.896 1963.57 924.896 1963.57 923.672 1968.46 922.448 1972.13 923.672 1975.8 924.896 1977.03 923.672 1974.58 922.448 1975.8 921.224 1979.47 921.224 1981.92 922.448 1985.59 923.672 1986.82 921.224 1984.37 921.224 1984.37 920 1988.04 920 1991.71 922.448 1994.16 923.672 1995.38 922.448 1994.16 921.224 1995.38 920 1999.05 921.224 2000.28 923.672 2002.72 924.896 2005.17 924.896 2003.95 922.448 2005.17 921.224 2007.62 922.448 2010.07 924.896 2012.51 926.119 2014.96 926.119 2013.74 923.672 2014.96 922.448 2017.41 924.896 2019.85 927.343 2022.3 929.791 2023.53 929.791 2023.53 927.343 2024.75 927.343 2030.87 934.687 2036.99 942.03 2035.76 953.045 2036.99 957.941 2033.32 961.613 2028.42 962.837L2028.42 962.837Z" fill="#FFFFFF" fill-rule="evenodd" fill-opacity="1"/><path d="M2125.64 970.51C2126.87 971.736 2128.09 971.736 2129.31 971.736 2125.64 974.189 2121.97 975.415 2118.3 976.642 2118.3 977.868 2119.52 977.868 2119.52 979.094 2115.85 981.547 2112.18 980.321 2108.51 981.547 2107.28 982.774 2109.73 982.774 2108.51 984 2104.84 984 2099.94 984 2096.27 982.774 2087.7 980.321 2080.36 976.642 2076.69 966.83 2088.93 954.566 2103.61 945.981 2118.3 937.396 2101.16 943.528 2086.48 950.887 2071.79 961.925 2065.67 959.472 2062 954.566 2062 948.434 2062 941.075 2068.12 930.038 2074.24 925.132L2075.46 927.585C2079.13 925.132 2080.36 921.453 2082.81 920.226 2084.03 921.453 2082.81 922.679 2085.25 923.906 2087.7 922.679 2088.93 920.226 2092.6 919 2093.82 920.226 2092.6 921.453 2095.04 922.679 2098.72 922.679 2099.94 920.226 2103.61 919 2103.61 920.226 2102.39 921.453 2103.61 922.679 2107.28 921.453 2110.96 919 2114.63 919 2114.63 920.226 2113.4 921.453 2113.4 922.679 2117.07 922.679 2119.52 920.226 2123.19 920.226 2123.19 921.453 2121.97 922.679 2123.19 923.906 2126.87 922.679 2131.76 921.453 2135.43 922.679 2135.43 923.906 2134.21 923.906 2134.21 926.358 2137.88 927.585 2141.55 926.358 2144 927.585 2142.78 931.264 2140.33 932.49 2140.33 936.17 2141.55 937.396 2142.78 936.17 2144 937.396 2142.78 941.075 2139.1 942.302 2137.88 944.755 2139.1 945.981 2140.33 944.755 2142.78 945.981 2141.55 949.66 2137.88 950.887 2136.66 953.34 2136.66 954.566 2139.1 954.566 2140.33 954.566 2139.1 958.245 2135.43 959.472 2132.99 961.925 2134.21 963.151 2135.43 963.151 2135.43 963.151 2132.99 966.83 2128.09 968.057 2125.64 970.51Z" fill="#FFFFFF" fill-rule="evenodd" fill-opacity="1"/><path d="M2044 1060.35C2044 1078.54 2030.62 1095.51 2012.36 1100.36 1994.11 1103.99 1978.29 1091.87 1977.08 1072.48 1975.86 1054.29 1989.24 1037.32 2006.28 1032.47 2026.96 1026.41 2044 1039.74 2044 1060.35Z" fill="#FFFFFF" fill-rule="evenodd" fill-opacity="1"/><path d="M2124 1068.74C2124 1089.28 2105.75 1102.58 2086.29 1096.53 2068.04 1090.49 2055.88 1071.15 2058.31 1053.03 2060.74 1034.9 2078.99 1024.02 2097.24 1031.27 2113.05 1036.11 2124 1051.82 2124 1068.74L2124 1068.74Z" fill="#FFFFFF" fill-rule="evenodd" fill-opacity="1"/><path d="M2050.86 1094.48C2061.8 1094.48 2070.31 1098.11 2077.6 1106.59 2089.75 1118.7 2088.53 1138.08 2075.17 1150.19 2061.8 1161.09 2041.14 1162.31 2027.77 1151.4 2018.05 1144.14 2013.19 1133.24 2015.62 1121.12 2018.05 1107.8 2027.77 1100.53 2039.92 1096.9 2043.57 1094.48 2047.22 1093.26 2050.86 1094.48L2050.86 1094.48Z" fill="#FFFFFF" fill-rule="evenodd" fill-opacity="1"/><path d="M2088 1152.85C2089.21 1143.05 2092.86 1132.03 2100.15 1123.45 2105 1118.56 2109.86 1113.66 2115.93 1109.98 2118.36 1108.76 2122.01 1106.31 2124.44 1106.31 2130.51 1105.08 2135.37 1107.53 2137.8 1113.66 2141.44 1123.45 2142.65 1134.48 2137.8 1144.28 2131.72 1157.75 2120.79 1167.55 2106.22 1170 2105 1170 2102.57 1170 2101.36 1170 2092.86 1170 2088 1165.1 2088 1152.85Z" fill="#FFFFFF" fill-rule="evenodd" fill-opacity="1"/><path d="M1959 1126.3C1959 1126.3 1959 1125.08 1959 1123.87 1960.21 1112.93 1966.26 1109.29 1977.14 1111.72 1994.07 1116.58 2009.79 1136.02 2011 1154.24 2011 1165.17 2006.16 1170.03 1995.28 1168.82 1980.77 1166.39 1971.09 1159.1 1963.84 1145.74 1960.21 1140.88 1959 1133.59 1959 1126.3L1959 1126.3Z" fill="#FFFFFF" fill-rule="evenodd" fill-opacity="1"/><path d="M2052.35 1027C2043.87 1027 2036.59 1025.81 2029.32 1022.23 2015.99 1016.26 2015.99 1006.71 2026.9 998.362 2041.44 987.622 2062.04 988.816 2075.37 1000.75 2076.59 1001.94 2077.8 1003.14 2079.01 1004.33 2083.86 1010.29 2082.65 1016.26 2076.59 1021.03 2071.74 1024.61 2065.68 1025.81 2059.62 1027 2057.2 1027 2053.56 1027 2052.35 1027L2052.35 1027Z" fill="#FFFFFF" fill-rule="evenodd" fill-opacity="1"/><path d="M2049.84 1200C2037.74 1200 2026.85 1195.22 2019.59 1185.65 2015.96 1180.87 2015.96 1178.48 2020.8 1174.89 2028.06 1170.11 2035.32 1168.91 2042.58 1167.72 2052.27 1166.52 2063.16 1166.52 2072.84 1170.11 2075.26 1171.3 2077.68 1171.3 2080.1 1172.5 2086.15 1176.09 2086.15 1178.48 2082.52 1184.46 2082.52 1184.46 2082.52 1184.46 2081.31 1185.65 2072.84 1194.02 2063.16 1198.8 2049.84 1200Z" fill="#FFFFFF" fill-rule="evenodd" fill-opacity="1"/><path d="M1967 1067.41C1967 1078.34 1964.55 1088.05 1960.88 1098.98 1959.66 1101.41 1958.43 1103.84 1957.21 1106.27 1954.76 1109.91 1952.31 1109.91 1948.64 1106.27 1933.96 1091.7 1936.4 1064.98 1953.54 1052.84 1959.66 1047.98 1963.33 1049.2 1965.78 1057.7 1967 1060.13 1967 1063.77 1967 1067.41L1967 1067.41Z" fill="#FFFFFF" fill-rule="evenodd" fill-opacity="1"/><path d="M2160 1081.99C2160 1090.53 2157.55 1099.07 2150.18 1105.17 2147.73 1107.61 2145.27 1107.61 2142.82 1105.17 2139.14 1101.51 2137.91 1096.63 2136.68 1091.75 2134.23 1080.77 2133 1071.01 2133 1060.03 2133 1057.59 2134.23 1055.15 2134.23 1052.71 2135.45 1049.05 2139.14 1047.83 2142.82 1050.27 2153.86 1056.37 2160 1068.57 2160 1081.99Z" fill="#FFFFFF" fill-rule="evenodd" fill-opacity="1"/><path d="M1965 1038.46C1965 1025.01 1967.4 1014.01 1978.2 1005.45 1989 996.89 2001 995.667 2013 998.112 2013 1001.78 2011.8 1003 2009.4 1005.45 2002.2 1014.01 1993.8 1021.34 1985.4 1028.68 1980.6 1032.34 1975.8 1036.01 1969.8 1038.46 1968.6 1038.46 1967.4 1039.68 1965 1038.46Z" fill="#FFFFFF" fill-rule="evenodd" fill-opacity="1"/><path d="M2136.46 1039.49C2134 1040.72 2131.53 1039.49 2129.07 1038.26 2121.69 1034.57 2115.54 1029.65 2109.38 1023.51 2102 1017.36 2095.85 1011.21 2089.69 1005.06 2088.46 1003.83 2086 1001.37 2086 998.913 2092.15 995.224 2111.84 996.453 2122.92 1006.29 2132.77 1013.67 2138.92 1030.88 2136.46 1039.49Z" fill="#FFFFFF" fill-rule="evenodd" fill-opacity="1"/><rect x="1842" y="857" width="416" height="416" fill="#000000" fill-opacity="0"/></g></g></svg>