<svg width="421" height="421" xmlns="http://www.w3.org/2000/svg" xmlns:xlink="http://www.w3.org/1999/xlink" xml:space="preserve" overflow="hidden"><defs><linearGradient x1="3905" y1="237" x2="3905" y2="582" gradientUnits="userSpaceOnUse" spreadMethod="reflect" id="fill0"><stop offset="0" stop-color="#FDD089" stop-opacity="1"/><stop offset="0.00735294" stop-color="#FCCF88" stop-opacity="1"/><stop offset="0.0147059" stop-color="#FCCF88" stop-opacity="1"/><stop offset="0.0220588" stop-color="#FCCF88" stop-opacity="1"/><stop offset="0.0294118" stop-color="#FCCF88" stop-opacity="1"/><stop offset="0.0367647" stop-color="#FCCF88" stop-opacity="1"/><stop offset="0.0441176" stop-color="#FCCF88" stop-opacity="1"/><stop offset="0.0514706" stop-color="#FCCF88" stop-opacity="1"/><stop offset="0.0588235" stop-color="#FCCF88" stop-opacity="1"/><stop offset="0.0661765" stop-color="#FCCF88" stop-opacity="1"/><stop offset="0.0735294" stop-color="#FCCF87" stop-opacity="1"/><stop offset="0.0808824" stop-color="#FCCF87" stop-opacity="1"/><stop offset="0.0882353" stop-color="#FCCF87" stop-opacity="1"/><stop offset="0.0955882" stop-color="#FCCF87" stop-opacity="1"/><stop offset="0.102941" stop-color="#FCCF87" stop-opacity="1"/><stop offset="0.110294" stop-color="#FBCE86" stop-opacity="1"/><stop offset="0.117647" stop-color="#FBCE86" stop-opacity="1"/><stop offset="0.125" stop-color="#FBCE86" stop-opacity="1"/><stop offset="0.132353" stop-color="#FBCE85" stop-opacity="1"/><stop offset="0.139706" stop-color="#FBCE85" stop-opacity="1"/><stop offset="0.147059" stop-color="#FBCE85" stop-opacity="1"/><stop offset="0.154412" stop-color="#FBCD84" stop-opacity="1"/><stop offset="0.161765" stop-color="#FACD84" stop-opacity="1"/><stop offset="0.169118" stop-color="#FACD84" stop-opacity="1"/><stop offset="0.176471" stop-color="#FACD83" stop-opacity="1"/><stop offset="0.183824" stop-color="#FACD83" stop-opacity="1"/><stop offset="0.191176" stop-color="#FACC82" stop-opacity="1"/><stop offset="0.198529" stop-color="#F9CC82" stop-opacity="1"/><stop offset="0.205882" stop-color="#F9CC81" stop-opacity="1"/><stop offset="0.213235" stop-color="#F9CC81" stop-opacity="1"/><stop offset="0.220588" stop-color="#F9CB80" stop-opacity="1"/><stop offset="0.227941" stop-color="#F8CB80" stop-opacity="1"/><stop offset="0.235294" stop-color="#F8CB7F" stop-opacity="1"/><stop offset="0.242647" stop-color="#F8CB7F" stop-opacity="1"/><stop offset="0.25" stop-color="#F8CA7E" stop-opacity="1"/><stop offset="0.257353" stop-color="#F7CA7E" stop-opacity="1"/><stop offset="0.264706" stop-color="#F7CA7D" stop-opacity="1"/><stop offset="0.272059" stop-color="#F7C97D" stop-opacity="1"/><stop offset="0.279412" stop-color="#F6C97C" stop-opacity="1"/><stop offset="0.286765" stop-color="#F6C97B" stop-opacity="1"/><stop offset="0.294118" stop-color="#F6C87B" stop-opacity="1"/><stop offset="0.301471" stop-color="#F6C87A" stop-opacity="1"/><stop offset="0.308824" stop-color="#F5C879" stop-opacity="1"/><stop offset="0.316176" stop-color="#F5C779" stop-opacity="1"/><stop offset="0.323529" stop-color="#F5C778" stop-opacity="1"/><stop offset="0.330882" stop-color="#F4C777" stop-opacity="1"/><stop offset="0.338235" stop-color="#F4C677" stop-opacity="1"/><stop offset="0.345588" stop-color="#F3C676" stop-opacity="1"/><stop offset="0.352941" stop-color="#F3C575" stop-opacity="1"/><stop offset="0.360294" stop-color="#F3C574" stop-opacity="1"/><stop offset="0.367647" stop-color="#F2C574" stop-opacity="1"/><stop offset="0.375" stop-color="#F2C473" stop-opacity="1"/><stop offset="0.382353" stop-color="#F2C472" stop-opacity="1"/><stop offset="0.389706" stop-color="#F1C371" stop-opacity="1"/><stop offset="0.397059" stop-color="#F1C370" stop-opacity="1"/><stop offset="0.404412" stop-color="#F0C26F" stop-opacity="1"/><stop offset="0.411765" stop-color="#F0C26F" stop-opacity="1"/><stop offset="0.419118" stop-color="#F0C26E" stop-opacity="1"/><stop offset="0.426471" stop-color="#EFC16D" stop-opacity="1"/><stop offset="0.433824" stop-color="#EFC16C" stop-opacity="1"/><stop offset="0.441176" stop-color="#EEC06B" stop-opacity="1"/><stop offset="0.448529" stop-color="#EEC06A" stop-opacity="1"/><stop offset="0.455882" stop-color="#EDBF69" stop-opacity="1"/><stop offset="0.463235" stop-color="#EDBF68" stop-opacity="1"/><stop offset="0.470588" stop-color="#ECBE67" stop-opacity="1"/><stop offset="0.477941" stop-color="#ECBE66" stop-opacity="1"/><stop offset="0.485294" stop-color="#EBBD65" stop-opacity="1"/><stop offset="0.492647" stop-color="#EBBD64" stop-opacity="1"/><stop offset="0.5" stop-color="#EBBC63" stop-opacity="1"/><stop offset="0.507353" stop-color="#EABC62" stop-opacity="1"/><stop offset="0.514706" stop-color="#EABB61" stop-opacity="1"/><stop offset="0.522059" stop-color="#E9BB60" stop-opacity="1"/><stop offset="0.529412" stop-color="#E8BA5F" stop-opacity="1"/><stop offset="0.536765" stop-color="#E8B95E" stop-opacity="1"/><stop offset="0.544118" stop-color="#E7B95D" stop-opacity="1"/><stop offset="0.551471" stop-color="#E7B85C" stop-opacity="1"/><stop offset="0.558824" stop-color="#E6B85A" stop-opacity="1"/><stop offset="0.566176" stop-color="#E6B759" stop-opacity="1"/><stop offset="0.573529" stop-color="#E5B658" stop-opacity="1"/><stop offset="0.580882" stop-color="#E5B657" stop-opacity="1"/><stop offset="0.588235" stop-color="#E4B556" stop-opacity="1"/><stop offset="0.595588" stop-color="#E4B555" stop-opacity="1"/><stop offset="0.602941" stop-color="#E3B453" stop-opacity="1"/><stop offset="0.610294" stop-color="#E2B352" stop-opacity="1"/><stop offset="0.617647" stop-color="#E2B351" stop-opacity="1"/><stop offset="0.625" stop-color="#E1B250" stop-opacity="1"/><stop offset="0.632353" stop-color="#E1B14E" stop-opacity="1"/><stop offset="0.639706" stop-color="#E0B14D" stop-opacity="1"/><stop offset="0.647059" stop-color="#DFB04C" stop-opacity="1"/><stop offset="0.654412" stop-color="#DFAF4B" stop-opacity="1"/><stop offset="0.661765" stop-color="#DEAF49" stop-opacity="1"/><stop offset="0.669118" stop-color="#DDAE48" stop-opacity="1"/><stop offset="0.676471" stop-color="#DDAD47" stop-opacity="1"/><stop offset="0.683824" stop-color="#DCAD45" stop-opacity="1"/><stop offset="0.691176" stop-color="#DBAC44" stop-opacity="1"/><stop offset="0.698529" stop-color="#DBAB43" stop-opacity="1"/><stop offset="0.705882" stop-color="#DAAB41" stop-opacity="1"/><stop offset="0.713235" stop-color="#D9AA40" stop-opacity="1"/><stop offset="0.720588" stop-color="#D9A93E" stop-opacity="1"/><stop offset="0.727941" stop-color="#D8A83D" stop-opacity="1"/><stop offset="0.735294" stop-color="#D7A83C" stop-opacity="1"/><stop offset="0.742647" stop-color="#D7A73A" stop-opacity="1"/><stop offset="0.75" stop-color="#D6A639" stop-opacity="1"/><stop offset="0.757353" stop-color="#D5A537" stop-opacity="1"/><stop offset="0.764706" stop-color="#D5A536" stop-opacity="1"/><stop offset="0.772059" stop-color="#D4A434" stop-opacity="1"/><stop offset="0.779412" stop-color="#D3A333" stop-opacity="1"/><stop offset="0.786765" stop-color="#D2A231" stop-opacity="1"/><stop offset="0.794118" stop-color="#D2A130" stop-opacity="1"/><stop offset="0.801471" stop-color="#D1A12E" stop-opacity="1"/><stop offset="0.808824" stop-color="#D0A02C" stop-opacity="1"/><stop offset="0.816176" stop-color="#CF9F2B" stop-opacity="1"/><stop offset="0.823529" stop-color="#CF9E29" stop-opacity="1"/><stop offset="0.830882" stop-color="#CE9D28" stop-opacity="1"/><stop offset="0.838235" stop-color="#CD9D26" stop-opacity="1"/><stop offset="0.845588" stop-color="#CC9C24" stop-opacity="1"/><stop offset="0.852941" stop-color="#CC9B23" stop-opacity="1"/><stop offset="0.860294" stop-color="#CB9A21" stop-opacity="1"/><stop offset="0.867647" stop-color="#CA9920" stop-opacity="1"/><stop offset="0.875" stop-color="#C9981E" stop-opacity="1"/><stop offset="0.882353" stop-color="#C8971C" stop-opacity="1"/><stop offset="0.889706" stop-color="#C7961A" stop-opacity="1"/><stop offset="0.897059" stop-color="#C79619" stop-opacity="1"/><stop offset="0.904412" stop-color="#C69517" stop-opacity="1"/><stop offset="0.911765" stop-color="#C59415" stop-opacity="1"/><stop offset="0.919118" stop-color="#C49314" stop-opacity="1"/><stop offset="0.926471" stop-color="#C39212" stop-opacity="1"/><stop offset="0.933824" stop-color="#C29110" stop-opacity="1"/><stop offset="0.941176" stop-color="#C2900E" stop-opacity="1"/><stop offset="0.948529" stop-color="#C18F0C" stop-opacity="1"/><stop offset="0.955882" stop-color="#C08E0B" stop-opacity="1"/><stop offset="0.963235" stop-color="#BF8D09" stop-opacity="1"/><stop offset="0.970588" stop-color="#BE8C07" stop-opacity="1"/><stop offset="0.977941" stop-color="#BD8B05" stop-opacity="1"/><stop offset="0.985294" stop-color="#BC8A03" stop-opacity="1"/><stop offset="0.992647" stop-color="#BB8901" stop-opacity="1"/><stop offset="1" stop-color="#BB8900" stop-opacity="1"/></linearGradient></defs><g transform="translate(-3694 -220)"><g><path d="M4068.71 538.05C4061.19 536.321 4053.22 535.244 4045.15 535.244 4031.36 535.244 4018.82 537.63 4009.56 541.479 4008.5 542.005 4007.82 543.082 4007.81 544.266 4007.81 544.703 4007.92 545.159 4008.09 545.529 4009.19 548.706 4007.39 552.149 3998.43 554.121 3985.15 557.036 3976.76 570.74 3971.96 575.298 3966.33 580.646 3950.42 583.935 3952.81 580.748 3954.68 578.253 3961.85 570.472 3966.2 562.061 3970.1 554.546 3973.57 552.411 3978.35 545.241 3979.75 543.136 3985.19 535.751 3986.77 529.905 3988.54 524.199 3987.94 517.043 3988.62 514.098 3989.6 509.848 3993.61 500.619 3993.92 495.416 3994.09 492.464 3981.62 499.613 3975.7 499.613 3969.79 499.613 3964.02 496.077 3958.73 495.815 3952.19 495.507 3947.99 500.861 3942.06 499.926 3938.68 499.392 3935.84 496.415 3929.93 496.19 3921.52 495.882 3911.24 500.861 3891.94 500.244 3872.95 499.629 3855.41 476.246 3853.01 472.53 3850.21 468.161 3846.78 468.161 3843.05 471.585 3839.31 475.009 3834.71 472.324 3833.39 470.029 3830.9 465.667 3824.24 452.923 3813.93 450.255 3799.67 446.559 3792.44 458.154 3793.38 467.381 3794.33 476.749 3800.39 479.371 3803.19 484.349 3805.99 489.333 3807.43 492.551 3812.7 494.758 3816.44 496.309 3817.83 498.618 3816.72 501.687 3815.74 504.362 3811.85 504.972 3809.3 505.094 3803.86 505.352 3800.05 503.878 3797.27 502.103 3794.04 500.049 3791.42 497.186 3788.6 492.326 3785.33 486.967 3780.2 484.632 3774.21 484.632 3771.35 484.632 3768.68 485.387 3766.31 486.607 3756.93 491.483 3745.76 494.378 3733.74 494.378L3720.18 494.384C3713.58 474.808 3710 453.841 3710 432.039 3710 324.319 3797.31 237 3905 237 4012.7 237 4100 324.319 4100 432.039 4100 471.123 4088.51 507.528 4068.71 538.05" fill="url(#fill0)" fill-rule="evenodd"/><path d="M4069 537.741C4061.47 536.008 4053.49 534.915 4045.41 534.915 4031.6 534.915 4019.04 537.314 4009.76 541.179 4008.7 541.705 4008.02 542.786 4008.02 543.973 4008.02 544.416 4008.13 544.868 4008.3 545.244 4009.39 548.425 4007.59 551.871 3998.62 553.848 3985.32 556.777 3976.93 570.516 3972.12 575.077 3966.48 580.448 3950.55 583.746 3952.94 580.546 3954.82 578.051 3961.99 570.249 3966.35 561.82 3970.25 554.285 3973.73 552.134 3978.51 544.951 3979.92 542.846 3985.36 535.436 3986.94 529.574 3988.72 523.857 3988.12 516.678 3988.8 513.724 3989.78 509.458 3993.8 500.211 3994.1 494.983 3994.28 492.033 3981.79 499.202 3975.86 499.202 3969.94 499.202 3964.16 495.65 3958.87 495.394 3952.32 495.085 3948.11 500.452 3942.18 499.52 3938.8 498.975 3935.95 495.985 3930.03 495.765 3921.61 495.461 3911.32 500.452 3891.99 499.83 3872.97 499.212 3855.41 475.767 3853.01 472.036 3850.2 467.666 3846.77 467.666 3843.03 471.099 3839.29 474.531 3834.68 471.834 3833.36 469.529 3830.87 465.166 3824.2 452.387 3813.88 449.706 3799.6 446.001 3792.36 457.631 3793.3 466.884 3794.25 476.275 3800.31 478.906 3803.13 483.897 3805.93 488.895 3807.36 492.115 3812.64 494.323 3816.39 495.887 3817.78 498.199 3816.67 501.281 3815.69 503.957 3811.79 504.569 3809.23 504.693 3803.79 504.956 3799.98 503.472 3797.2 501.703 3793.96 499.629 3791.33 496.767 3788.51 491.889 3785.24 486.516 3780.09 484.165 3774.1 484.165 3771.24 484.165 3768.57 484.932 3766.19 486.151 3756.8 491.055 3745.62 493.953 3733.58 493.953L3720 493.958C3746.03 571.305 3819.06 627 3905.07 627 3973.78 627 4034.2 591.466 4069 537.741" fill="#F6E699" fill-rule="evenodd" fill-opacity="1"/><path d="M3948.35 520.14C3949.37 521.069 3951.13 524.187 3948.98 528.145 3947.78 530.24 3946.48 531.718 3944.16 533.445 3941.37 535.527 3935.92 537.933 3928.45 533.513 3924.42 531.135 3924.18 530.338 3918.63 531.009 3914.67 531.49 3913.09 527.76 3914.52 524.658 3915.94 521.565 3921.8 519.061 3929.08 523.039 3932.35 524.834 3937.47 528.616 3941.94 525.265 3943.79 523.88 3944.9 522.956 3947.47 520.184 3947.71 519.957 3948.09 519.938 3948.35 520.14" fill="#BB8900" fill-rule="evenodd" fill-opacity="1"/><path d="M4014.97 379.958C4013.04 386.435 4010.31 394.722 3998.13 400.984 3996.36 401.887 3995.68 400.399 3996.5 398.997 4001.1 391.16 4001.92 389.201 4003.26 386.107 4005.13 381.59 4006.11 375.161 4002.39 361.747 3995.06 335.355 3979.78 300.079 3968.68 288.637 3957.96 277.593 3938.55 274.484 3920.99 278.995 3914.53 280.657 3901.89 287.241 3878.43 281.95 3837.85 272.794 3831.83 293.148 3829.5 302.014 3827.17 310.882 3821.58 336.083 3821.58 336.083 3819.72 346.342 3817.28 364.189 3880.3 376.208 3909.65 381.811 3911.15 389.405 3912.45 394.876 3914.78 404.674 3918.5 410.277 3922.7 413.074 3926.89 415.875 3922.7 418.194 3918.04 418.672 3905.54 419.97 3859.33 406.7 3831.99 391.145 3809.62 377.454 3809.24 365.128 3814.36 354.671 3780.58 351.011 3755.22 357.847 3750.62 373.863 3742.73 401.352 3810.98 448.307 3888.68 471.867 3970.23 496.596 4054.11 479.333 4063.43 428.007 4067.67 404.683 4048.05 387.431 4014.97 379.958M3889.93 329.695C3867.44 331.327 3865.1 333.758 3860.89 338.249 3854.95 344.587 3847.12 330.029 3847.12 330.029 3842.42 329.037 3836.73 321.458 3839.8 314.377 3842.83 307.372 3848.42 309.476 3850.17 311.658 3852.3 314.31 3856.85 318.652 3862.75 318.498 3868.65 318.338 3875.46 317.096 3884.97 317.096 3894.59 317.096 3901.06 320.693 3901.42 323.787 3901.74 326.426 3900.65 328.92 3889.93 329.695M3913.56 292.474C3913.53 292.481 3913.49 292.484 3913.46 292.485 3913.11 292.485 3912.83 292.214 3912.83 291.889 3912.83 291.654 3912.97 291.449 3913.18 291.356 3917.54 289.046 3924.05 287.215 3931.49 286.455 3933.66 286.231 3935.84 286.108 3938.01 286.086 3938.38 286.086 3938.75 286.091 3939.13 286.095 3951.61 286.379 3961.6 291.345 3961.45 297.191 3961.3 303.036 3951.07 307.546 3938.59 307.264 3934.54 307.173 3930.75 306.588 3927.49 305.643 3927.1 305.554 3926.83 305.216 3926.82 304.822 3926.83 304.425 3927.11 304.087 3927.5 304.005 3935.29 302.2 3940.54 299.249 3940.17 296.463 3939.68 292.773 3929.49 290.76 3917.42 291.978 3916.1 292.11 3914.8 292.279 3913.56 292.474" fill="#BB8900" fill-rule="evenodd" fill-opacity="1"/><rect x="3697" y="224" width="416" height="416" fill="#000000" fill-opacity="0"/></g></g></svg>