<svg width="418" height="421" xmlns="http://www.w3.org/2000/svg" xmlns:xlink="http://www.w3.org/1999/xlink" xml:space="preserve" overflow="hidden"><defs><linearGradient x1="1496" y1="940" x2="1496" y2="1212" gradientUnits="userSpaceOnUse" spreadMethod="reflect" id="fill0"><stop offset="0" stop-color="#FDD089" stop-opacity="1"/><stop offset="0.00735294" stop-color="#FCCF88" stop-opacity="1"/><stop offset="0.0147059" stop-color="#FCCF88" stop-opacity="1"/><stop offset="0.0220588" stop-color="#FCCF88" stop-opacity="1"/><stop offset="0.0294118" stop-color="#FCCF88" stop-opacity="1"/><stop offset="0.0367647" stop-color="#FCCF88" stop-opacity="1"/><stop offset="0.0441176" stop-color="#FCCF88" stop-opacity="1"/><stop offset="0.0514706" stop-color="#FCCF88" stop-opacity="1"/><stop offset="0.0588235" stop-color="#FCCF88" stop-opacity="1"/><stop offset="0.0661765" stop-color="#FCCF88" stop-opacity="1"/><stop offset="0.0735294" stop-color="#FCCF87" stop-opacity="1"/><stop offset="0.0808824" stop-color="#FCCF87" stop-opacity="1"/><stop offset="0.0882353" stop-color="#FCCF87" stop-opacity="1"/><stop offset="0.0955882" stop-color="#FCCF87" stop-opacity="1"/><stop offset="0.102941" stop-color="#FCCF87" stop-opacity="1"/><stop offset="0.110294" stop-color="#FBCE86" stop-opacity="1"/><stop offset="0.117647" stop-color="#FBCE86" stop-opacity="1"/><stop offset="0.125" stop-color="#FBCE86" stop-opacity="1"/><stop offset="0.132353" stop-color="#FBCE85" stop-opacity="1"/><stop offset="0.139706" stop-color="#FBCE85" stop-opacity="1"/><stop offset="0.147059" stop-color="#FBCE85" stop-opacity="1"/><stop offset="0.154412" stop-color="#FBCD84" stop-opacity="1"/><stop offset="0.161765" stop-color="#FACD84" stop-opacity="1"/><stop offset="0.169118" stop-color="#FACD84" stop-opacity="1"/><stop offset="0.176471" stop-color="#FACD83" stop-opacity="1"/><stop offset="0.183824" stop-color="#FACD83" stop-opacity="1"/><stop offset="0.191176" stop-color="#FACC82" stop-opacity="1"/><stop offset="0.198529" stop-color="#F9CC82" stop-opacity="1"/><stop offset="0.205882" stop-color="#F9CC81" stop-opacity="1"/><stop offset="0.213235" stop-color="#F9CC81" stop-opacity="1"/><stop offset="0.220588" stop-color="#F9CB80" stop-opacity="1"/><stop offset="0.227941" stop-color="#F8CB80" stop-opacity="1"/><stop offset="0.235294" stop-color="#F8CB7F" stop-opacity="1"/><stop offset="0.242647" stop-color="#F8CB7F" stop-opacity="1"/><stop offset="0.25" stop-color="#F8CA7E" stop-opacity="1"/><stop offset="0.257353" stop-color="#F7CA7E" stop-opacity="1"/><stop offset="0.264706" stop-color="#F7CA7D" stop-opacity="1"/><stop offset="0.272059" stop-color="#F7C97D" stop-opacity="1"/><stop offset="0.279412" stop-color="#F6C97C" stop-opacity="1"/><stop offset="0.286765" stop-color="#F6C97B" stop-opacity="1"/><stop offset="0.294118" stop-color="#F6C87B" stop-opacity="1"/><stop offset="0.301471" stop-color="#F6C87A" stop-opacity="1"/><stop offset="0.308824" stop-color="#F5C879" stop-opacity="1"/><stop offset="0.316176" stop-color="#F5C779" stop-opacity="1"/><stop offset="0.323529" stop-color="#F5C778" stop-opacity="1"/><stop offset="0.330882" stop-color="#F4C777" stop-opacity="1"/><stop offset="0.338235" stop-color="#F4C677" stop-opacity="1"/><stop offset="0.345588" stop-color="#F3C676" stop-opacity="1"/><stop offset="0.352941" stop-color="#F3C575" stop-opacity="1"/><stop offset="0.360294" stop-color="#F3C574" stop-opacity="1"/><stop offset="0.367647" stop-color="#F2C574" stop-opacity="1"/><stop offset="0.375" stop-color="#F2C473" stop-opacity="1"/><stop offset="0.382353" stop-color="#F2C472" stop-opacity="1"/><stop offset="0.389706" stop-color="#F1C371" stop-opacity="1"/><stop offset="0.397059" stop-color="#F1C370" stop-opacity="1"/><stop offset="0.404412" stop-color="#F0C26F" stop-opacity="1"/><stop offset="0.411765" stop-color="#F0C26F" stop-opacity="1"/><stop offset="0.419118" stop-color="#F0C26E" stop-opacity="1"/><stop offset="0.426471" stop-color="#EFC16D" stop-opacity="1"/><stop offset="0.433824" stop-color="#EFC16C" stop-opacity="1"/><stop offset="0.441176" stop-color="#EEC06B" stop-opacity="1"/><stop offset="0.448529" stop-color="#EEC06A" stop-opacity="1"/><stop offset="0.455882" stop-color="#EDBF69" stop-opacity="1"/><stop offset="0.463235" stop-color="#EDBF68" stop-opacity="1"/><stop offset="0.470588" stop-color="#ECBE67" stop-opacity="1"/><stop offset="0.477941" stop-color="#ECBE66" stop-opacity="1"/><stop offset="0.485294" stop-color="#EBBD65" stop-opacity="1"/><stop offset="0.492647" stop-color="#EBBD64" stop-opacity="1"/><stop offset="0.5" stop-color="#EBBC63" stop-opacity="1"/><stop offset="0.507353" stop-color="#EABC62" stop-opacity="1"/><stop offset="0.514706" stop-color="#EABB61" stop-opacity="1"/><stop offset="0.522059" stop-color="#E9BB60" stop-opacity="1"/><stop offset="0.529412" stop-color="#E8BA5F" stop-opacity="1"/><stop offset="0.536765" stop-color="#E8B95E" stop-opacity="1"/><stop offset="0.544118" stop-color="#E7B95D" stop-opacity="1"/><stop offset="0.551471" stop-color="#E7B85C" stop-opacity="1"/><stop offset="0.558824" stop-color="#E6B85A" stop-opacity="1"/><stop offset="0.566176" stop-color="#E6B759" stop-opacity="1"/><stop offset="0.573529" stop-color="#E5B658" stop-opacity="1"/><stop offset="0.580882" stop-color="#E5B657" stop-opacity="1"/><stop offset="0.588235" stop-color="#E4B556" stop-opacity="1"/><stop offset="0.595588" stop-color="#E4B555" stop-opacity="1"/><stop offset="0.602941" stop-color="#E3B453" stop-opacity="1"/><stop offset="0.610294" stop-color="#E2B352" stop-opacity="1"/><stop offset="0.617647" stop-color="#E2B351" stop-opacity="1"/><stop offset="0.625" stop-color="#E1B250" stop-opacity="1"/><stop offset="0.632353" stop-color="#E1B14E" stop-opacity="1"/><stop offset="0.639706" stop-color="#E0B14D" stop-opacity="1"/><stop offset="0.647059" stop-color="#DFB04C" stop-opacity="1"/><stop offset="0.654412" stop-color="#DFAF4B" stop-opacity="1"/><stop offset="0.661765" stop-color="#DEAF49" stop-opacity="1"/><stop offset="0.669118" stop-color="#DDAE48" stop-opacity="1"/><stop offset="0.676471" stop-color="#DDAD47" stop-opacity="1"/><stop offset="0.683824" stop-color="#DCAD45" stop-opacity="1"/><stop offset="0.691176" stop-color="#DBAC44" stop-opacity="1"/><stop offset="0.698529" stop-color="#DBAB43" stop-opacity="1"/><stop offset="0.705882" stop-color="#DAAB41" stop-opacity="1"/><stop offset="0.713235" stop-color="#D9AA40" stop-opacity="1"/><stop offset="0.720588" stop-color="#D9A93E" stop-opacity="1"/><stop offset="0.727941" stop-color="#D8A83D" stop-opacity="1"/><stop offset="0.735294" stop-color="#D7A83C" stop-opacity="1"/><stop offset="0.742647" stop-color="#D7A73A" stop-opacity="1"/><stop offset="0.75" stop-color="#D6A639" stop-opacity="1"/><stop offset="0.757353" stop-color="#D5A537" stop-opacity="1"/><stop offset="0.764706" stop-color="#D5A536" stop-opacity="1"/><stop offset="0.772059" stop-color="#D4A434" stop-opacity="1"/><stop offset="0.779412" stop-color="#D3A333" stop-opacity="1"/><stop offset="0.786765" stop-color="#D2A231" stop-opacity="1"/><stop offset="0.794118" stop-color="#D2A130" stop-opacity="1"/><stop offset="0.801471" stop-color="#D1A12E" stop-opacity="1"/><stop offset="0.808824" stop-color="#D0A02C" stop-opacity="1"/><stop offset="0.816176" stop-color="#CF9F2B" stop-opacity="1"/><stop offset="0.823529" stop-color="#CF9E29" stop-opacity="1"/><stop offset="0.830882" stop-color="#CE9D28" stop-opacity="1"/><stop offset="0.838235" stop-color="#CD9D26" stop-opacity="1"/><stop offset="0.845588" stop-color="#CC9C24" stop-opacity="1"/><stop offset="0.852941" stop-color="#CC9B23" stop-opacity="1"/><stop offset="0.860294" stop-color="#CB9A21" stop-opacity="1"/><stop offset="0.867647" stop-color="#CA9920" stop-opacity="1"/><stop offset="0.875" stop-color="#C9981E" stop-opacity="1"/><stop offset="0.882353" stop-color="#C8971C" stop-opacity="1"/><stop offset="0.889706" stop-color="#C7961A" stop-opacity="1"/><stop offset="0.897059" stop-color="#C79619" stop-opacity="1"/><stop offset="0.904412" stop-color="#C69517" stop-opacity="1"/><stop offset="0.911765" stop-color="#C59415" stop-opacity="1"/><stop offset="0.919118" stop-color="#C49314" stop-opacity="1"/><stop offset="0.926471" stop-color="#C39212" stop-opacity="1"/><stop offset="0.933824" stop-color="#C29110" stop-opacity="1"/><stop offset="0.941176" stop-color="#C2900E" stop-opacity="1"/><stop offset="0.948529" stop-color="#C18F0C" stop-opacity="1"/><stop offset="0.955882" stop-color="#C08E0B" stop-opacity="1"/><stop offset="0.963235" stop-color="#BF8D09" stop-opacity="1"/><stop offset="0.970588" stop-color="#BE8C07" stop-opacity="1"/><stop offset="0.977941" stop-color="#BD8B05" stop-opacity="1"/><stop offset="0.985294" stop-color="#BC8A03" stop-opacity="1"/><stop offset="0.992647" stop-color="#BB8901" stop-opacity="1"/><stop offset="1" stop-color="#BB8900" stop-opacity="1"/></linearGradient></defs><g transform="translate(-1287 -866)"><g><path d="M1463.29 969.666C1475.87 956.608 1493.38 948.508 1512.75 948.508 1538.49 948.508 1560.96 962.812 1572.92 984.047 1583.31 979.42 1594.82 976.845 1606.92 976.845 1653.36 976.845 1691 1014.68 1691 1061.35 1691 1108.03 1653.36 1145.87 1606.92 1145.87 1601.36 1145.87 1595.81 1145.32 1590.36 1144.22 1579.83 1162.94 1559.76 1175.59 1536.72 1175.59 1527.07 1175.59 1517.95 1173.37 1509.83 1169.43 1499.15 1194.45 1474.27 1212 1445.28 1212 1415.08 1212 1389.35 1192.96 1379.47 1166.26 1375.16 1167.18 1370.68 1167.65 1366.09 1167.65 1330.14 1167.65 1301 1138.32 1301 1102.12 1301 1077.86 1314.09 1056.68 1333.55 1045.35 1329.54 1036.17 1327.32 1026.03 1327.32 1015.37 1327.32 973.745 1361.23 940 1403.07 940 1427.63 940 1449.46 951.636 1463.29 969.666" fill="url(#fill0)" fill-rule="evenodd"/><path d="M1357.09 1081.02C1356.84 1081.66 1357.18 1081.79 1357.26 1081.9 1357.99 1082.44 1358.73 1082.83 1359.49 1083.26 1363.47 1085.38 1367.23 1086 1371.16 1086 1379.16 1086 1384.14 1081.72 1384.14 1074.83L1384.14 1074.7C1384.14 1068.33 1378.53 1066.01 1373.26 1064.34L1372.58 1064.12C1368.61 1062.82 1365.18 1061.71 1365.18 1059.08L1365.18 1058.94C1365.18 1056.69 1367.18 1055.04 1370.28 1055.04 1373.73 1055.04 1377.82 1056.19 1380.46 1057.66 1380.46 1057.66 1381.23 1058.16 1381.52 1057.4 1381.67 1057 1383.01 1053.39 1383.15 1053 1383.3 1052.58 1383.03 1052.26 1382.76 1052.1 1379.75 1050.26 1375.59 1049 1371.29 1049L1370.48 1049.01C1363.16 1049.01 1358.04 1053.45 1358.04 1059.83L1358.04 1059.96C1358.04 1066.68 1363.68 1068.86 1368.97 1070.38L1369.82 1070.65C1373.68 1071.84 1377 1072.86 1377 1075.59L1377 1075.72C1377 1078.21 1374.84 1080.07 1371.36 1080.07 1370.01 1080.07 1365.7 1080.04 1361.04 1077.08 1360.48 1076.75 1360.15 1076.51 1359.72 1076.25 1359.49 1076.1 1358.92 1075.85 1358.67 1076.61L1357.09 1081.02ZM1474.31 1081.02C1474.07 1081.66 1474.4 1081.79 1474.48 1081.9 1475.21 1082.44 1475.96 1082.83 1476.71 1083.26 1480.69 1085.38 1484.45 1086 1488.38 1086 1496.39 1086 1501.36 1081.72 1501.36 1074.83L1501.36 1074.7C1501.36 1068.33 1495.75 1066.01 1490.48 1064.34L1489.8 1064.12C1485.83 1062.82 1482.4 1061.71 1482.4 1059.08L1482.4 1058.94C1482.4 1056.69 1484.41 1055.04 1487.51 1055.04 1490.96 1055.04 1495.05 1056.19 1497.68 1057.66 1497.68 1057.66 1498.46 1058.16 1498.74 1057.4 1498.9 1057 1500.23 1053.39 1500.37 1053 1500.52 1052.58 1500.25 1052.26 1499.98 1052.1 1496.97 1050.26 1492.81 1049 1488.51 1049L1487.71 1049.01C1480.38 1049.01 1475.26 1053.45 1475.26 1059.83L1475.26 1059.96C1475.26 1066.68 1480.91 1068.86 1486.2 1070.38L1487.05 1070.65C1490.9 1071.84 1494.23 1072.86 1494.23 1075.59L1494.23 1075.72C1494.23 1078.21 1492.06 1080.07 1488.58 1080.07 1487.23 1080.07 1482.92 1080.04 1478.27 1077.08 1477.71 1076.75 1477.37 1076.52 1476.95 1076.25 1476.8 1076.15 1476.13 1075.89 1475.89 1076.61L1474.31 1081.02ZM1554.34 1067.52C1554.34 1071.42 1553.62 1074.48 1552.19 1076.65 1550.79 1078.8 1548.66 1079.84 1545.69 1079.84 1542.71 1079.84 1540.59 1078.8 1539.21 1076.65 1537.81 1074.49 1537.1 1071.42 1537.1 1067.52 1537.1 1063.63 1537.81 1060.57 1539.21 1058.43 1540.59 1056.3 1542.71 1055.27 1545.69 1055.27 1548.66 1055.27 1550.79 1056.3 1552.2 1058.43 1553.62 1060.57 1554.34 1063.63 1554.34 1067.52M1561.02 1060.3C1560.37 1058.07 1559.34 1056.11 1557.98 1054.47 1556.62 1052.83 1554.9 1051.51 1552.85 1050.55 1550.81 1049.59 1548.4 1049.11 1545.69 1049.11 1542.97 1049.11 1540.56 1049.59 1538.52 1050.55 1536.47 1051.51 1534.75 1052.83 1533.38 1054.47 1532.02 1056.11 1531 1058.08 1530.34 1060.3 1529.69 1062.52 1529.36 1064.95 1529.36 1067.52 1529.36 1070.1 1529.69 1072.53 1530.34 1074.74 1531 1076.96 1532.02 1078.93 1533.39 1080.57 1534.75 1082.22 1536.48 1083.53 1538.52 1084.46 1540.57 1085.4 1542.97 1085.87 1545.69 1085.87 1548.4 1085.87 1550.8 1085.4 1552.85 1084.46 1554.89 1083.53 1556.62 1082.22 1557.98 1080.57 1559.34 1078.94 1560.37 1076.97 1561.02 1074.74 1561.68 1072.52 1562.01 1070.09 1562.01 1067.52 1562.01 1064.95 1561.68 1062.52 1561.02 1060.3M1615.91 1078.8C1615.69 1078.15 1615.06 1078.39 1615.06 1078.39 1614.09 1078.77 1613.05 1079.11 1611.95 1079.29 1610.83 1079.46 1609.61 1079.55 1608.29 1079.55 1605.05 1079.55 1602.48 1078.58 1600.64 1076.67 1598.8 1074.76 1597.76 1071.67 1597.77 1067.49 1597.78 1063.69 1598.7 1060.83 1600.34 1058.65 1601.97 1056.48 1604.45 1055.37 1607.75 1055.37 1610.51 1055.37 1612.61 1055.69 1614.82 1056.39 1614.82 1056.39 1615.34 1056.61 1615.59 1055.92 1616.18 1054.29 1616.61 1053.12 1617.23 1051.33 1617.41 1050.82 1616.98 1050.6 1616.82 1050.54 1615.96 1050.2 1613.91 1049.65 1612.36 1049.41 1610.92 1049.19 1609.23 1049.07 1607.35 1049.07 1604.54 1049.07 1602.04 1049.55 1599.9 1050.51 1597.76 1051.47 1595.95 1052.79 1594.51 1054.43 1593.08 1056.07 1591.99 1058.04 1591.26 1060.26 1590.54 1062.48 1590.17 1064.92 1590.17 1067.49 1590.17 1073.06 1591.67 1077.57 1594.62 1080.86 1597.58 1084.17 1602.02 1085.85 1607.82 1085.85 1611.24 1085.85 1614.76 1085.16 1617.28 1084.15 1617.28 1084.15 1617.76 1083.92 1617.55 1083.36L1615.91 1078.8ZM1627.61 1063.79C1627.92 1061.63 1628.52 1059.83 1629.44 1058.43 1630.82 1056.3 1632.93 1055.13 1635.9 1055.13 1638.87 1055.13 1640.84 1056.3 1642.24 1058.43 1643.18 1059.83 1643.58 1061.71 1643.74 1063.79L1627.61 1063.79ZM1650.11 1059.04C1649.54 1056.88 1648.14 1054.71 1647.21 1053.72 1645.76 1052.14 1644.33 1051.04 1642.92 1050.43 1641.07 1049.63 1638.86 1049.11 1636.44 1049.11 1633.61 1049.11 1631.05 1049.58 1628.97 1050.57 1626.88 1051.55 1625.13 1052.89 1623.76 1054.56 1622.38 1056.23 1621.35 1058.21 1620.69 1060.46 1620.03 1062.7 1619.7 1065.14 1619.7 1067.72 1619.7 1070.34 1620.04 1072.78 1620.73 1074.98 1621.42 1077.19 1622.52 1079.14 1624.01 1080.75 1625.49 1082.38 1627.41 1083.65 1629.7 1084.54 1631.97 1085.43 1634.74 1085.88 1637.91 1085.88 1644.44 1085.85 1647.89 1084.39 1649.3 1083.6 1649.55 1083.46 1649.79 1083.22 1649.49 1082.51L1648.01 1078.35C1647.79 1077.73 1647.16 1077.96 1647.16 1077.96 1645.55 1078.56 1643.24 1079.65 1637.88 1079.64 1634.37 1079.63 1631.77 1078.59 1630.14 1076.97 1628.46 1075.3 1627.65 1072.85 1627.5 1069.4L1650.13 1069.42C1650.13 1069.42 1650.72 1069.41 1650.78 1068.83 1650.81 1068.58 1651.56 1064.16 1650.11 1059.04M1446.4 1063.79C1446.72 1061.63 1447.31 1059.83 1448.23 1058.43 1449.61 1056.3 1451.73 1055.13 1454.7 1055.13 1457.67 1055.13 1459.63 1056.3 1461.04 1058.43 1461.97 1059.83 1462.38 1061.71 1462.54 1063.79L1446.4 1063.79ZM1468.9 1059.04C1468.33 1056.88 1466.93 1054.71 1466.01 1053.72 1464.55 1052.14 1463.13 1051.04 1461.72 1050.43 1459.87 1049.63 1457.66 1049.11 1455.23 1049.11 1452.41 1049.11 1449.84 1049.58 1447.76 1050.57 1445.68 1051.55 1443.93 1052.89 1442.55 1054.56 1441.18 1056.23 1440.15 1058.21 1439.49 1060.46 1438.83 1062.7 1438.49 1065.14 1438.49 1067.72 1438.49 1070.34 1438.84 1072.78 1439.52 1074.98 1440.21 1077.19 1441.31 1079.14 1442.8 1080.75 1444.29 1082.38 1446.2 1083.65 1448.49 1084.54 1450.77 1085.43 1453.53 1085.88 1456.71 1085.88 1463.24 1085.85 1466.68 1084.39 1468.1 1083.6 1468.35 1083.46 1468.59 1083.22 1468.29 1082.51L1466.81 1078.35C1466.59 1077.73 1465.96 1077.96 1465.96 1077.96 1464.34 1078.56 1462.04 1079.65 1456.67 1079.64 1453.16 1079.63 1450.56 1078.59 1448.93 1076.97 1447.26 1075.3 1446.44 1072.85 1446.3 1069.4L1468.92 1069.42C1468.92 1069.42 1469.52 1069.41 1469.58 1068.83 1469.6 1068.58 1470.36 1064.16 1468.9 1059.04M1397.49 1078.68C1396.61 1077.97 1396.49 1077.79 1396.19 1077.33 1395.74 1076.63 1395.51 1075.64 1395.51 1074.37 1395.51 1072.37 1396.17 1070.94 1397.53 1069.97 1397.52 1069.98 1399.48 1068.27 1404.09 1068.33 1407.34 1068.37 1410.23 1068.85 1410.23 1068.85L1410.23 1079.19 1410.24 1079.19C1410.24 1079.19 1407.36 1079.81 1404.13 1080.01 1399.52 1080.29 1397.48 1078.67 1397.49 1078.68M1406.5 1062.7C1405.58 1062.64 1404.39 1062.6 1402.97 1062.6 1401.02 1062.6 1399.15 1062.84 1397.39 1063.32 1395.63 1063.79 1394.03 1064.54 1392.67 1065.52 1391.3 1066.5 1390.18 1067.78 1389.39 1069.27 1388.59 1070.77 1388.18 1072.53 1388.18 1074.51 1388.18 1076.52 1388.52 1078.27 1389.21 1079.7 1389.9 1081.14 1390.9 1082.33 1392.17 1083.25 1393.42 1084.18 1394.97 1084.85 1396.78 1085.26 1398.55 1085.67 1400.56 1085.87 1402.77 1085.87 1405.08 1085.87 1407.4 1085.68 1409.64 1085.3 1411.86 1084.92 1414.58 1084.36 1415.34 1084.19 1415.87 1084.06 1416.4 1083.93 1416.92 1083.78 1417.48 1083.64 1417.44 1083.04 1417.44 1083.04L1417.43 1062.25C1417.43 1057.69 1416.22 1054.31 1413.83 1052.21 1411.46 1050.13 1407.96 1049.07 1403.44 1049.07 1401.74 1049.07 1399.01 1049.3 1397.38 1049.63 1397.38 1049.63 1392.43 1050.59 1390.4 1052.19 1390.4 1052.19 1389.95 1052.47 1390.2 1053.1L1391.8 1057.42C1392 1057.98 1392.54 1057.79 1392.54 1057.79 1392.54 1057.79 1392.71 1057.72 1392.91 1057.61 1397.27 1055.23 1402.77 1055.3 1402.77 1055.3 1405.22 1055.3 1407.1 1055.79 1408.37 1056.77 1409.6 1057.72 1410.23 1059.15 1410.23 1062.18L1410.23 1063.14C1408.28 1062.86 1406.5 1062.7 1406.5 1062.7M1588.99 1050.99C1589.16 1050.47 1588.8 1050.23 1588.65 1050.17 1588.27 1050.02 1586.34 1049.61 1584.86 1049.52 1582.02 1049.35 1580.44 1049.83 1579.02 1050.46 1577.62 1051.1 1576.07 1052.13 1575.2 1053.3L1575.2 1050.53C1575.2 1050.14 1574.93 1049.84 1574.55 1049.84L1568.75 1049.84C1568.37 1049.84 1568.1 1050.14 1568.1 1050.53L1568.1 1084.44C1568.1 1084.82 1568.41 1085.13 1568.79 1085.13L1574.73 1085.13C1575.11 1085.13 1575.42 1084.82 1575.42 1084.44L1575.42 1067.5C1575.42 1065.23 1575.67 1062.96 1576.17 1061.53 1576.66 1060.12 1577.32 1059 1578.15 1058.18 1578.97 1057.38 1579.91 1056.82 1580.94 1056.5 1581.99 1056.17 1583.16 1056.07 1583.98 1056.07 1585.16 1056.07 1586.46 1056.37 1586.46 1056.37 1586.9 1056.42 1587.14 1056.16 1587.29 1055.76 1587.68 1054.72 1588.78 1051.61 1588.99 1050.99" fill="#FFFFFF" fill-rule="evenodd" fill-opacity="1"/><path d="M1533.54 1035.76C1532.82 1035.54 1532.16 1035.39 1531.3 1035.23 1530.43 1035.08 1529.4 1035 1528.22 1035 1524.12 1035 1520.89 1036.15 1518.63 1038.4 1516.37 1040.65 1514.84 1044.08 1514.07 1048.58L1513.79 1050.09 1508.65 1050.09C1508.65 1050.09 1508.02 1050.07 1507.89 1050.74L1507.05 1055.41C1506.99 1055.85 1507.18 1056.13 1507.78 1056.13L1512.79 1056.13 1507.71 1084.19C1507.32 1086.45 1506.86 1088.31 1506.35 1089.72 1505.86 1091.1 1505.37 1092.15 1504.77 1092.91 1504.19 1093.63 1503.65 1094.17 1502.7 1094.49 1501.92 1094.75 1501.02 1094.87 1500.03 1094.87 1499.48 1094.87 1498.76 1094.78 1498.22 1094.67 1497.68 1094.56 1497.4 1094.45 1496.99 1094.28 1496.99 1094.28 1496.41 1094.06 1496.17 1094.64 1495.99 1095.12 1494.65 1098.75 1494.49 1099.19 1494.33 1099.64 1494.56 1099.99 1494.84 1100.09 1495.51 1100.32 1496 1100.48 1496.91 1100.69 1498.17 1100.98 1499.23 1101 1500.23 1101 1502.31 1101 1504.22 1100.71 1505.79 1100.15 1507.38 1099.58 1508.76 1098.59 1509.98 1097.26 1511.3 1095.82 1512.13 1094.31 1512.92 1092.24 1513.71 1090.2 1514.38 1087.67 1514.92 1084.71L1520.02 1056.13 1527.49 1056.13C1527.49 1056.13 1528.12 1056.15 1528.24 1055.48L1529.09 1050.81C1529.15 1050.37 1528.96 1050.09 1528.35 1050.09L1521.1 1050.09C1521.14 1049.93 1521.47 1047.41 1522.3 1045.03 1522.66 1044.03 1523.33 1043.21 1523.89 1042.64 1524.45 1042.09 1525.09 1041.7 1525.79 1041.47 1526.51 1041.24 1527.33 1041.13 1528.22 1041.13 1528.9 1041.13 1529.58 1041.21 1530.08 1041.31 1530.78 1041.46 1531.06 1041.54 1531.24 1041.6 1531.98 1041.82 1532.08 1041.6 1532.23 1041.25L1533.96 1036.54C1534.14 1036.04 1533.7 1035.82 1533.54 1035.76M1432.31 1084.25C1432.31 1084.62 1432.03 1084.93 1431.66 1084.93L1425.65 1084.93C1425.27 1084.93 1425 1084.62 1425 1084.25L1425 1036.4C1425 1036.03 1425.27 1035.72 1425.65 1035.72L1431.66 1035.72C1432.03 1035.72 1432.31 1036.03 1432.31 1036.4L1432.31 1084.25Z" fill="#FFFFFF" fill-rule="evenodd" fill-opacity="1"/><rect x="1288" y="868" width="416" height="416" fill="#000000" fill-opacity="0"/></g></g></svg>